<svg width="115" height="149" viewBox="0 0 115 149" fill="none" xmlns="http://www.w3.org/2000/svg">
<mask id="path-1-inside-1_1367_3118" fill="white">
<path fill-rule="evenodd" clip-rule="evenodd" d="M17.367 133.928C27.2909 150.054 35.3542 148.814 35.3542 148.814C44.0376 148.194 45.2781 137.029 45.2781 137.029C45.2781 137.029 46.5186 128.346 50.2401 123.384C55.0036 117.032 63.2653 112.219 78.7715 106.017C95.1465 98.6416 103.669 84.0779 102.238 74.4178C101.699 70.78 99.3226 71.5833 96.0208 72.6995C92.6657 73.8338 88.3546 75.2913 84.0437 72.7404C77.7297 69.0042 89.3575 60.6434 89.3575 60.6434C89.3575 60.6434 99.2397 53.2956 106.683 39.6501C117.227 20.317 114.746 3.67573 114.746 3.67573C114.746 3.67573 114.115 -4.99382 105.442 4.29598C97.3362 12.5114 86.575 17.489 76.3546 20.5789C70.6291 22.1512 67.0688 22.0331 66.6192 19.7295C66.483 19.032 66.8988 18.2801 67.3322 17.4964C67.8361 16.5851 68.3638 15.6308 68.0753 14.669C67.5923 13.0588 66.1075 13.059 61.9085 14.2713C60.7565 14.6038 58.0624 15.5703 56.8053 16.1001C56.1145 16.3912 55.6278 16.5865 55.2106 16.7538C53.8638 17.2942 53.2412 17.544 48.8147 19.7893C38.4087 25.0675 32.9406 28.5463 28.6718 31.5677C11.5209 43.7069 2.59908 57.5561 0.573059 75.0637C0.204439 77.077 0 79.1298 0 81.2068C0 102.301 9.61385 121.324 17.367 133.928Z"/>
</mask>
<path fill-rule="evenodd" clip-rule="evenodd" d="M17.367 133.928C27.2909 150.054 35.3542 148.814 35.3542 148.814C44.0376 148.194 45.2781 137.029 45.2781 137.029C45.2781 137.029 46.5186 128.346 50.2401 123.384C55.0036 117.032 63.2653 112.219 78.7715 106.017C95.1465 98.6416 103.669 84.0779 102.238 74.4178C101.699 70.78 99.3226 71.5833 96.0208 72.6995C92.6657 73.8338 88.3546 75.2913 84.0437 72.7404C77.7297 69.0042 89.3575 60.6434 89.3575 60.6434C89.3575 60.6434 99.2397 53.2956 106.683 39.6501C117.227 20.317 114.746 3.67573 114.746 3.67573C114.746 3.67573 114.115 -4.99382 105.442 4.29598C97.3362 12.5114 86.575 17.489 76.3546 20.5789C70.6291 22.1512 67.0688 22.0331 66.6192 19.7295C66.483 19.032 66.8988 18.2801 67.3322 17.4964C67.8361 16.5851 68.3638 15.6308 68.0753 14.669C67.5923 13.0588 66.1075 13.059 61.9085 14.2713C60.7565 14.6038 58.0624 15.5703 56.8053 16.1001C56.1145 16.3912 55.6278 16.5865 55.2106 16.7538C53.8638 17.2942 53.2412 17.544 48.8147 19.7893C38.4087 25.0675 32.9406 28.5463 28.6718 31.5677C11.5209 43.7069 2.59908 57.5561 0.573059 75.0637C0.204439 77.077 0 79.1298 0 81.2068C0 102.301 9.61385 121.324 17.367 133.928Z" fill="#2D2520"/>
<path d="M35.3542 148.814L34.9134 142.643L34.6623 142.661L34.4135 142.699L35.3542 148.814ZM17.367 133.928L12.0978 137.169L12.0983 137.17L17.367 133.928ZM45.2781 137.029L39.154 136.154L39.1403 136.25L39.1296 136.346L45.2781 137.029ZM50.2401 123.384L45.291 119.672L45.291 119.672L50.2401 123.384ZM78.7715 106.017L81.0691 111.761L81.1917 111.712L81.312 111.657L78.7715 106.017ZM102.238 74.4178L96.118 75.3244L96.118 75.3244L102.238 74.4178ZM96.0208 72.6995L94.0396 66.839L94.0395 66.839L96.0208 72.6995ZM84.0437 72.7404L87.1941 67.4163L87.1941 67.4163L84.0437 72.7404ZM89.3575 60.6434L92.969 65.6661L93.0091 65.6373L93.0487 65.6078L89.3575 60.6434ZM106.683 39.6501L112.114 42.6125L112.114 42.6122L106.683 39.6501ZM114.746 3.67573L108.576 4.12506L108.593 4.35747L108.627 4.58795L114.746 3.67573ZM105.442 4.29598L109.846 8.64097L109.906 8.58006L109.964 8.51752L105.442 4.29598ZM76.3546 20.5789L77.9928 26.5444L78.0691 26.5234L78.1448 26.5005L76.3546 20.5789ZM66.6192 19.7295L60.5474 20.9146L60.5474 20.9146L66.6192 19.7295ZM67.3322 17.4964L61.9184 14.5028L61.9184 14.5028L67.3322 17.4964ZM68.0753 14.669L62.1497 16.4464L62.1498 16.4466L68.0753 14.669ZM61.9085 14.2713L63.6244 20.2149L63.6244 20.2149L61.9085 14.2713ZM56.8053 16.1001L59.2076 21.8009L59.2076 21.8009L56.8053 16.1001ZM55.2106 16.7538L52.907 11.0124L52.907 11.0124L55.2106 16.7538ZM48.8147 19.7893L51.6132 25.3065L51.6132 25.3064L48.8147 19.7893ZM28.6718 31.5677L25.0978 26.5182L25.0978 26.5182L28.6718 31.5677ZM0.573059 75.0637L6.65824 76.1779L6.69495 75.9774L6.71839 75.7749L0.573059 75.0637ZM35.3542 148.814C34.4135 142.699 34.4198 142.698 34.4262 142.698C34.4282 142.697 34.4346 142.696 34.4387 142.696C34.447 142.694 34.4552 142.693 34.4633 142.692C34.4796 142.69 34.4954 142.687 34.5108 142.685C34.5416 142.681 34.5708 142.677 34.5984 142.674C34.6536 142.668 34.7024 142.663 34.7449 142.659C34.8301 142.652 34.89 142.65 34.9258 142.65C34.9983 142.649 34.9706 142.655 34.8505 142.637C34.6222 142.603 33.9666 142.469 32.9526 141.938C30.9279 140.878 27.1788 138.068 22.6356 130.686L12.0983 137.17C17.479 145.914 22.7236 150.548 27.2115 152.898C29.4538 154.073 31.4343 154.637 33.0279 154.875C33.8188 154.992 34.4986 155.027 35.0508 155.022C35.3265 155.019 35.5693 155.006 35.7774 154.989C35.8815 154.98 35.9768 154.97 36.0631 154.96C36.1062 154.955 36.1471 154.949 36.1858 154.944C36.2051 154.941 36.2238 154.939 36.242 154.936C36.2511 154.935 36.2601 154.934 36.2689 154.932C36.2733 154.932 36.2798 154.931 36.282 154.93C36.2884 154.929 36.2948 154.928 35.3542 148.814ZM45.2781 137.029C39.1296 136.346 39.1299 136.344 39.1301 136.342C39.1302 136.341 39.1304 136.339 39.1306 136.337C39.1309 136.335 39.1312 136.332 39.1315 136.33C39.132 136.325 39.1325 136.321 39.1329 136.317C39.1338 136.31 39.1344 136.305 39.1346 136.303C39.1352 136.298 39.1347 136.303 39.1328 136.316C39.1291 136.344 39.1202 136.405 39.1051 136.497C39.0744 136.681 39.0194 136.978 38.9311 137.348C38.749 138.111 38.4535 139.07 38.0095 139.983C37.0864 141.88 36.1193 142.557 34.9134 142.643L35.7949 154.984C43.2725 154.45 47.2674 149.235 49.1354 145.395C50.087 143.439 50.6443 141.568 50.9661 140.219C51.1298 139.533 51.2396 138.952 51.3107 138.523C51.3464 138.308 51.3727 138.13 51.3913 137.993C51.4007 137.925 51.4082 137.867 51.414 137.82C51.4169 137.796 51.4194 137.775 51.4215 137.758C51.4225 137.749 51.4235 137.74 51.4243 137.733C51.4248 137.729 51.4252 137.725 51.4255 137.722C51.4257 137.72 51.426 137.718 51.4261 137.717C51.4264 137.715 51.4266 137.712 45.2781 137.029ZM45.291 119.672C42.7246 123.094 41.2371 127.408 40.4029 130.411C39.9632 131.994 39.6568 133.396 39.4589 134.407C39.3595 134.915 39.2863 135.331 39.2365 135.629C39.2116 135.779 39.1925 135.899 39.1789 135.988C39.1721 136.032 39.1666 136.068 39.1625 136.096C39.1604 136.11 39.1587 136.122 39.1573 136.132C39.1565 136.136 39.1559 136.141 39.1554 136.144C39.1551 136.146 39.1548 136.148 39.1546 136.15C39.1545 136.151 39.1543 136.152 39.1543 136.152C39.1541 136.153 39.154 136.154 45.2781 137.029C51.4023 137.904 51.4022 137.905 51.402 137.906C51.402 137.906 51.4018 137.907 51.4018 137.908C51.4016 137.909 51.4015 137.91 51.4013 137.911C51.4011 137.912 51.4009 137.913 51.4008 137.914C51.4006 137.915 51.4007 137.915 51.4011 137.912C51.4019 137.907 51.4039 137.894 51.407 137.873C51.4134 137.832 51.4246 137.761 51.4409 137.663C51.4735 137.468 51.5263 137.166 51.6013 136.783C51.7523 136.011 51.9886 134.931 52.3242 133.723C53.0406 131.144 54.0342 128.635 55.1892 127.095L45.291 119.672ZM76.474 100.273C60.9744 106.473 51.1931 111.802 45.291 119.672L55.1892 127.095C58.8141 122.262 65.5563 117.966 81.0691 111.761L76.474 100.273ZM96.118 75.3244C96.5283 78.0944 95.5415 82.5797 92.097 87.5506C88.7468 92.3853 83.4071 97.144 76.231 100.376L81.312 111.657C90.5109 107.514 97.6198 101.304 102.267 94.5976C106.819 88.0279 109.378 80.4013 108.357 73.5112L96.118 75.3244ZM98.0021 78.56C98.8912 78.2594 99.4112 78.0877 99.8224 77.984C100.276 77.8695 100.059 77.9859 99.5101 77.9275C99.181 77.8924 98.6961 77.7916 98.1544 77.5228C97.5948 77.2451 97.1196 76.8594 96.7568 76.4255C96.0863 75.6234 96.0686 74.9914 96.118 75.3244L108.357 73.5112C108.137 72.0254 107.62 70.1296 106.249 68.4899C104.707 66.6451 102.681 65.8224 100.82 65.6244C99.1973 65.4515 97.7336 65.7506 96.7962 65.9871C95.8165 66.2342 94.8013 66.5815 94.0396 66.839L98.0021 78.56ZM80.8932 78.0644C87.9496 82.2399 94.9715 79.5846 98.0021 78.56L94.0395 66.839C90.3598 68.0831 88.7596 68.3427 87.1941 67.4163L80.8932 78.0644ZM89.3575 60.6434C85.746 55.6207 85.7448 55.6215 85.7435 55.6224C85.7431 55.6228 85.7418 55.6237 85.7408 55.6244C85.7389 55.6258 85.7369 55.6273 85.7346 55.6289C85.7301 55.6322 85.7248 55.6359 85.7189 55.6403C85.707 55.6489 85.6922 55.6596 85.6748 55.6723C85.6399 55.6978 85.5941 55.7315 85.5383 55.773C85.4268 55.8558 85.2749 55.9702 85.09 56.1129C84.7217 56.3973 84.2155 56.7995 83.6342 57.2933C82.5034 58.2539 80.9483 59.6785 79.5682 61.3451C78.3252 62.8461 76.5621 65.3146 76.0964 68.3298C75.839 69.9965 75.9638 71.9453 76.9005 73.863C77.8281 75.7621 79.3042 77.1242 80.8932 78.0644L87.1941 67.4163C87.2046 67.4225 87.6629 67.7061 88.0179 68.4328C88.3819 69.1781 88.3793 69.8608 88.3241 70.2183C88.2628 70.615 88.2229 70.2928 89.0975 69.2366C89.8351 68.3459 90.7924 67.4468 91.6444 66.723C92.0546 66.3746 92.4075 66.0945 92.6504 65.907C92.7712 65.8138 92.8629 65.7449 92.9186 65.7034C92.9465 65.6827 92.9652 65.669 92.9739 65.6626C92.9783 65.6595 92.9801 65.6581 92.9793 65.6587C92.979 65.659 92.9779 65.6597 92.9762 65.6609C92.9753 65.6616 92.9743 65.6623 92.9731 65.6632C92.9725 65.6636 92.9715 65.6643 92.9712 65.6645C92.9701 65.6653 92.969 65.6661 89.3575 60.6434ZM101.252 36.6878C97.8514 42.9218 93.8822 47.7338 90.7663 50.9796C89.213 52.5976 87.8861 53.8114 86.9705 54.6035C86.5132 54.9991 86.1601 55.2881 85.9345 55.4683C85.8218 55.5584 85.7411 55.6212 85.6954 55.6565C85.6725 55.6741 85.6584 55.6848 85.6534 55.6885C85.6509 55.6904 85.6507 55.6906 85.6529 55.689C85.6539 55.6882 85.6556 55.6869 85.6578 55.6853C85.6589 55.6844 85.6602 55.6835 85.6616 55.6824C85.6623 55.6819 85.6635 55.681 85.6638 55.6808C85.665 55.6799 85.6663 55.679 89.3575 60.6434C93.0487 65.6078 93.0501 65.6068 93.0514 65.6058C93.0519 65.6055 93.0533 65.6044 93.0543 65.6037C93.0563 65.6022 93.0585 65.6005 93.0608 65.5988C93.0655 65.5954 93.0707 65.5914 93.0765 65.5871C93.0882 65.5783 93.1023 65.5677 93.1187 65.5553C93.1516 65.5304 93.1939 65.4982 93.2453 65.4586C93.3479 65.3796 93.4868 65.2712 93.6588 65.1337C94.0028 64.8588 94.4798 64.4672 95.0653 63.9607C96.2353 62.9486 97.8441 61.4727 99.6917 59.5481C103.378 55.7086 108.071 50.0239 112.114 42.6125L101.252 36.6878ZM114.746 3.67573C108.627 4.58795 108.627 4.58565 108.627 4.58342C108.626 4.58276 108.626 4.58058 108.626 4.57926C108.626 4.57661 108.625 4.57421 108.625 4.57205C108.624 4.56774 108.624 4.56441 108.623 4.56205C108.623 4.55735 108.623 4.55655 108.623 4.55961C108.624 4.56572 108.627 4.58724 108.631 4.62375C108.64 4.69678 108.656 4.82962 108.674 5.01894C108.71 5.39777 108.757 6.00136 108.787 6.80322C108.845 8.4086 108.831 10.7973 108.517 13.7603C107.888 19.687 106.064 27.8648 101.252 36.688L112.114 42.6122C117.846 32.1023 120.053 22.2929 120.82 15.0657C121.204 11.4518 121.228 8.4718 121.151 6.35279C121.112 5.29245 121.048 4.44491 120.99 3.83815C120.961 3.53467 120.933 3.2911 120.911 3.11093C120.9 3.02083 120.89 2.94654 120.882 2.8885C120.878 2.85948 120.875 2.83452 120.872 2.81367C120.87 2.80325 120.869 2.79385 120.868 2.78549C120.867 2.78131 120.867 2.77738 120.866 2.77372C120.866 2.77189 120.866 2.76933 120.865 2.76842C120.865 2.76593 120.865 2.76351 114.746 3.67573ZM109.964 8.51752C111.899 6.44458 112.798 6.04525 112.782 6.05122C112.697 6.08421 112.217 6.24899 111.472 6.16094C110.68 6.06752 109.977 5.7343 109.452 5.30891C108.605 4.62288 108.5 3.94716 108.573 4.19822C108.579 4.219 108.586 4.25246 108.59 4.27629C108.591 4.28386 108.59 4.27921 108.588 4.25767C108.586 4.2466 108.585 4.23055 108.583 4.20887C108.582 4.198 108.581 4.18565 108.58 4.17173C108.579 4.16477 108.578 4.15741 108.578 4.14963C108.577 4.14575 108.577 4.14176 108.577 4.13766C108.577 4.13562 108.576 4.13246 108.576 4.13144C108.576 4.12826 108.576 4.12506 114.746 3.67573C120.916 3.2264 120.916 3.22313 120.915 3.21982C120.915 3.21867 120.915 3.21531 120.915 3.21301C120.915 3.20838 120.914 3.20361 120.914 3.19867C120.913 3.18881 120.912 3.17832 120.911 3.16723C120.91 3.14505 120.907 3.1204 120.905 3.09342C120.9 3.0395 120.894 2.9759 120.886 2.9036C120.87 2.75959 120.847 2.57776 120.814 2.36642C120.749 1.95241 120.639 1.38114 120.451 0.734307C120.135 -0.349863 119.329 -2.61236 117.241 -4.30455C114.622 -6.42634 111.316 -6.64528 108.327 -5.49136C105.754 -4.49818 103.321 -2.49753 100.92 0.0744363L109.964 8.51752ZM78.1448 26.5005C88.8804 23.2549 100.732 17.8782 109.846 8.64097L101.039 -0.0490125C93.9408 7.14456 84.2695 11.7232 74.5643 14.6573L78.1448 26.5005ZM74.7164 14.6134C73.4497 14.9613 72.3978 15.1888 71.5523 15.3173C70.6828 15.4493 70.1772 15.4537 69.9574 15.4377C69.6839 15.4178 70.1505 15.392 70.8529 15.8403C71.2403 16.0875 71.6688 16.462 72.0308 16.9889C72.3943 17.5181 72.5974 18.0655 72.6909 18.5443L60.5474 20.9146C60.9914 23.1892 62.3144 25.0687 64.1968 26.27C65.8722 27.3392 67.671 27.6767 69.0595 27.7777C71.798 27.977 74.9449 27.3814 77.9928 26.5444L74.7164 14.6134ZM72.6909 18.5444C72.9336 19.7875 72.607 20.6789 72.5485 20.8335C72.5094 20.937 72.4888 20.9688 72.5289 20.8903C72.5719 20.8061 72.6281 20.7032 72.746 20.49L61.9184 14.5028C61.7544 14.7994 61.3042 15.5885 60.9757 16.4571C60.6351 17.3579 60.1686 18.974 60.5474 20.9146L72.6909 18.5444ZM72.7459 20.49C72.9397 20.1396 73.495 19.1732 73.865 18.0722C74.2709 16.8642 74.6349 15.0054 74.0007 12.8914L62.1498 16.4466C61.8042 15.2944 62.0485 14.3937 62.1368 14.1311C62.1791 14.0053 62.2054 13.964 62.1635 14.0483C62.1173 14.1411 62.0556 14.2546 61.9184 14.5028L72.7459 20.49ZM74.0008 12.8916C73.6281 11.6493 72.8552 10.0592 71.244 8.83352C69.6672 7.634 67.9622 7.29897 66.7064 7.23372C64.5538 7.12189 62.1574 7.76042 60.1926 8.32765L63.6244 20.2149C64.6055 19.9316 65.2901 19.7601 65.7721 19.6651C66.2952 19.562 66.3202 19.603 66.0644 19.5897C65.765 19.5742 64.7842 19.4652 63.7529 18.6807C62.6871 17.8699 62.2809 16.8836 62.1497 16.4464L74.0008 12.8916ZM60.1926 8.32764C58.7745 8.73705 55.8501 9.7894 54.4029 10.3993L59.2076 21.8009C60.2747 21.3512 62.7386 20.4706 63.6244 20.2149L60.1926 8.32764ZM54.4029 10.3993C53.7631 10.6689 53.3169 10.848 52.907 11.0124L57.5142 22.4953C57.9388 22.325 58.4658 22.1135 59.2076 21.8009L54.4029 10.3993ZM52.907 11.0124C51.311 11.6528 50.5011 11.9972 46.0162 14.2721L51.6132 25.3064C55.9813 23.0908 56.4166 22.9357 57.5142 22.4953L52.907 11.0124ZM46.0162 14.2721C35.382 19.6661 29.6484 23.2973 25.0978 26.5182L32.2458 36.6172C36.2327 33.7953 41.4354 30.4689 51.6132 25.3065L46.0162 14.2721ZM25.0978 26.5182C6.80635 39.4647 -3.30625 54.7711 -5.57227 74.3526L6.71839 75.7749C8.50441 60.3411 16.2355 47.9491 32.2458 36.6172L25.0978 26.5182ZM6.18634 81.2068C6.18634 79.5362 6.35076 77.8572 6.65824 76.1779L-5.51212 73.9496C-5.94189 76.2968 -6.18634 78.7234 -6.18634 81.2068H6.18634ZM22.6361 130.687C15.0501 118.355 6.18634 100.545 6.18634 81.2068H-6.18634C-6.18634 104.058 4.1776 124.294 12.0978 137.169L22.6361 130.687Z" fill="#2D2520" mask="url(#path-1-inside-1_1367_3118)"/>
</svg>
