<svg width="200" height="164" viewBox="0 0 200 164" fill="none" xmlns="http://www.w3.org/2000/svg">
<path d="M22.9281 3H95.8242C108.562 3 120.79 8.00594 129.872 16.9385L185.434 71.591C191.089 77.153 191.089 86.2694 185.434 91.8314L129.872 146.484C120.79 155.416 108.562 160.422 95.8242 160.422H22.9281C11.9226 160.422 3.00085 151.501 3.00085 140.495V22.9272C3.00085 11.9217 11.9226 3 22.9281 3Z" fill="#2D2520" stroke="#483527" stroke-width="6"/>
<mask id="path-2-inside-1_1353_2738" fill="white">
<path fill-rule="evenodd" clip-rule="evenodd" d="M51.8921 118.91C58.1932 129.149 63.3128 128.362 63.3128 128.362C68.8262 127.968 69.6138 120.879 69.6138 120.879C69.6138 120.879 70.4015 115.366 72.7644 112.215C75.7889 108.182 81.0345 105.126 90.8799 101.188C101.277 96.5056 106.688 87.2586 105.779 81.1251C105.437 78.8154 103.928 79.3254 101.832 80.0341C99.7018 80.7543 96.9645 81.6797 94.2274 80.0601C90.2184 77.6878 97.6013 72.3793 97.6013 72.3793C97.6013 72.3793 103.876 67.7139 108.602 59.0499C115.297 46.7747 113.721 36.2086 113.721 36.2086C113.721 36.2086 113.32 30.704 107.814 36.6024C102.668 41.8179 95.8365 44.9782 89.348 46.9402C85.711 47.9393 83.4493 47.8647 83.1638 46.4016C83.0773 45.9588 83.3413 45.4814 83.6165 44.9838C83.9364 44.4052 84.2715 43.7993 84.0883 43.1886C83.7816 42.1662 82.8389 42.1664 80.1728 42.936C79.4414 43.1472 77.7308 43.7608 76.9326 44.0972C76.494 44.2821 76.185 44.406 75.9201 44.5123C75.065 44.8554 74.6696 45.014 71.8591 46.4396C65.252 49.7909 61.7801 51.9997 59.0697 53.9181C48.179 61.6265 42.5142 70.4207 41.2285 81.5384C40.9948 82.8157 40.8652 84.118 40.8652 85.4357C40.8652 98.8294 46.9694 110.908 51.8921 118.91Z"/>
</mask>
<path fill-rule="evenodd" clip-rule="evenodd" d="M51.8921 118.91C58.1932 129.149 63.3128 128.362 63.3128 128.362C68.8262 127.968 69.6138 120.879 69.6138 120.879C69.6138 120.879 70.4015 115.366 72.7644 112.215C75.7889 108.182 81.0345 105.126 90.8799 101.188C101.277 96.5056 106.688 87.2586 105.779 81.1251C105.437 78.8154 103.928 79.3254 101.832 80.0341C99.7018 80.7543 96.9645 81.6797 94.2274 80.0601C90.2184 77.6878 97.6013 72.3793 97.6013 72.3793C97.6013 72.3793 103.876 67.7139 108.602 59.0499C115.297 46.7747 113.721 36.2086 113.721 36.2086C113.721 36.2086 113.32 30.704 107.814 36.6024C102.668 41.8179 95.8365 44.9782 89.348 46.9402C85.711 47.9393 83.4493 47.8647 83.1638 46.4016C83.0773 45.9588 83.3413 45.4814 83.6165 44.9838C83.9364 44.4052 84.2715 43.7993 84.0883 43.1886C83.7816 42.1662 82.8389 42.1664 80.1728 42.936C79.4414 43.1472 77.7308 43.7608 76.9326 44.0972C76.494 44.2821 76.185 44.406 75.9201 44.5123C75.065 44.8554 74.6696 45.014 71.8591 46.4396C65.252 49.7909 61.7801 51.9997 59.0697 53.9181C48.179 61.6265 42.5142 70.4207 41.2285 81.5384C40.9948 82.8157 40.8652 84.118 40.8652 85.4357C40.8652 98.8294 46.9694 110.908 51.8921 118.91Z" fill="#FDF7EA"/>
<path d="M63.3128 128.362L62.872 122.191L62.6209 122.209L62.3721 122.247L63.3128 128.362ZM51.8921 118.91L46.6229 122.151L46.6234 122.152L51.8921 118.91ZM69.6138 120.879L63.4897 120.004L63.476 120.1L63.4653 120.196L69.6138 120.879ZM72.7644 112.215L67.8153 108.503L67.8153 108.503L72.7644 112.215ZM90.8799 101.188L93.1775 106.932L93.3 106.883L93.4204 106.829L90.8799 101.188ZM105.779 81.1251L111.899 80.2185L111.899 80.2185L105.779 81.1251ZM101.832 80.0341L99.8508 74.1736L99.8508 74.1736L101.832 80.0341ZM94.2274 80.0601L91.0769 85.3841L91.0769 85.3841L94.2274 80.0601ZM97.6013 72.3793L101.213 77.402L101.253 77.3732L101.293 77.3437L97.6013 72.3793ZM108.602 59.0499L114.033 62.0123L114.033 62.012L108.602 59.0499ZM113.721 36.2086L107.551 36.6579L107.568 36.8903L107.603 37.1208L113.721 36.2086ZM107.814 36.6024L112.218 40.9474L112.278 40.8865L112.336 40.824L107.814 36.6024ZM89.348 46.9402L90.9868 52.9055L91.0629 52.8846L91.1385 52.8617L89.348 46.9402ZM83.1638 46.4016L77.092 47.5867L77.092 47.5868L83.1638 46.4016ZM83.6165 44.9838L78.2027 41.9902L78.2027 41.9902L83.6165 44.9838ZM84.0883 43.1886L78.1628 44.966L78.1628 44.9662L84.0883 43.1886ZM80.1728 42.936L81.8887 48.8796L81.8887 48.8796L80.1728 42.936ZM76.9326 44.0972L79.335 49.798L79.335 49.798L76.9326 44.0972ZM75.9201 44.5123L78.2236 50.2538L78.2237 50.2538L75.9201 44.5123ZM71.8591 46.4396L69.0606 40.9224L71.8591 46.4396ZM59.0697 53.9181L62.6437 58.9676L62.6437 58.9676L59.0697 53.9181ZM41.2285 81.5384L47.3138 82.6518L47.3505 82.4514L47.3739 82.2491L41.2285 81.5384ZM63.3128 128.362C62.3721 122.247 62.3785 122.246 62.3848 122.245C62.3869 122.245 62.3933 122.244 62.3975 122.243C62.4059 122.242 62.4142 122.241 62.4225 122.24C62.4391 122.237 62.4554 122.235 62.4715 122.233C62.5038 122.228 62.5351 122.224 62.5655 122.221C62.6264 122.214 62.6837 122.208 62.7375 122.203C62.8451 122.194 62.9384 122.19 63.018 122.189C63.178 122.188 63.2795 122.199 63.3257 122.206C63.4299 122.221 63.2555 122.215 62.8358 121.996C61.9999 121.558 59.8925 120.107 57.1607 115.668L46.6234 122.152C50.1927 127.952 53.7957 131.227 57.0948 132.956C58.7427 133.819 60.242 134.256 61.5031 134.444C62.1277 134.537 62.6783 134.566 63.143 134.562C63.3748 134.559 63.5843 134.548 63.77 134.533C63.8628 134.525 63.9496 134.516 64.0302 134.506C64.0706 134.502 64.1093 134.497 64.1465 134.492C64.1651 134.489 64.1834 134.486 64.2012 134.484C64.2101 134.483 64.2189 134.481 64.2276 134.48C64.232 134.479 64.2384 134.478 64.2406 134.478C64.247 134.477 64.2534 134.476 63.3128 128.362ZM69.6138 120.879C63.4653 120.196 63.4656 120.194 63.4658 120.191C63.4659 120.191 63.4662 120.189 63.4663 120.187C63.4666 120.184 63.467 120.181 63.4673 120.179C63.4679 120.173 63.4684 120.169 63.469 120.164C63.4701 120.155 63.471 120.147 63.4717 120.141C63.4733 120.129 63.4742 120.122 63.4744 120.12C63.4747 120.118 63.4723 120.136 63.4664 120.171C63.4543 120.244 63.4294 120.38 63.3871 120.558C63.297 120.935 63.1572 121.377 62.9679 121.766C62.8771 121.953 62.7922 122.092 62.7224 122.188C62.6534 122.283 62.6159 122.313 62.6227 122.308C62.6348 122.297 62.6837 122.26 62.7633 122.227C62.8472 122.191 62.8956 122.189 62.872 122.191L63.7535 134.532C69.6461 134.111 72.7352 129.972 74.0938 127.179C74.7906 125.747 75.1923 124.392 75.4221 123.428C75.5398 122.935 75.6195 122.514 75.672 122.198C75.6984 122.039 75.7183 121.904 75.7329 121.797C75.7402 121.744 75.7462 121.697 75.7511 121.658C75.7535 121.638 75.7556 121.621 75.7575 121.605C75.7584 121.597 75.7593 121.589 75.7601 121.582C75.7605 121.579 75.7609 121.575 75.7613 121.572C75.7615 121.57 75.7617 121.568 75.7618 121.567C75.7621 121.565 75.7623 121.562 69.6138 120.879ZM67.8153 108.503C65.9281 111.02 64.8936 114.089 64.3424 116.073C64.0442 117.146 63.8368 118.095 63.7026 118.781C63.635 119.126 63.5848 119.411 63.5501 119.619C63.5327 119.723 63.5192 119.809 63.5092 119.874C63.5042 119.906 63.5001 119.933 63.4968 119.955C63.4952 119.966 63.4938 119.976 63.4926 119.984C63.492 119.988 63.4915 119.992 63.491 119.995C63.4907 119.997 63.4905 119.998 63.4903 120C63.4902 120.001 63.49 120.002 63.49 120.002C63.4898 120.003 63.4897 120.004 69.6138 120.879C75.738 121.754 75.7379 121.755 75.7377 121.756C75.7377 121.756 75.7375 121.757 75.7374 121.758C75.7373 121.759 75.7371 121.76 75.737 121.761C75.7367 121.763 75.7364 121.765 75.7362 121.766C75.7358 121.769 75.7355 121.771 75.7355 121.771C75.7354 121.772 75.736 121.768 75.7373 121.759C75.74 121.742 75.7457 121.706 75.7545 121.653C75.772 121.548 75.8018 121.377 75.845 121.156C75.9324 120.71 76.0696 120.083 76.2637 119.384C76.697 117.824 77.2377 116.561 77.7134 115.927L67.8153 108.503ZM88.5824 95.4444C78.7436 99.38 71.9784 102.953 67.8153 108.503L77.7134 115.927C79.5994 113.412 83.3255 110.873 93.1775 106.932L88.5824 95.4444ZM99.6597 82.0317C99.8088 83.0384 99.4692 85.3129 97.4844 88.1772C95.5939 90.9054 92.5265 93.6618 88.3394 95.5477L93.4204 106.829C99.6303 104.032 104.467 99.8236 107.654 95.2243C110.747 90.7611 112.658 85.3453 111.899 80.2185L99.6597 82.0317ZM103.813 85.8946C104.401 85.6959 104.641 85.6189 104.798 85.5792C104.998 85.5288 104.553 85.6786 103.808 85.5992C102.826 85.4946 101.536 85.0084 100.567 83.8484C100.156 83.3577 99.9322 82.8936 99.8137 82.5815C99.6981 82.2768 99.6656 82.0712 99.6597 82.0317L111.899 80.2185C111.728 79.0647 111.302 77.3996 110.059 75.9127C108.645 74.2208 106.783 73.4733 105.119 73.2961C103.692 73.1442 102.455 73.4099 101.772 73.5823C101.046 73.7654 100.311 74.018 99.8508 74.1736L103.813 85.8946ZM91.0769 85.3841C96.5595 88.6283 102.008 86.5051 103.813 85.8946L99.8508 74.1736C99.2955 74.3613 98.8979 74.4939 98.5081 74.5998C98.1338 74.7015 97.8742 74.7473 97.6906 74.7642C97.517 74.7802 97.4459 74.7669 97.4389 74.7655C97.4343 74.7646 97.4333 74.7643 97.4312 74.7635C97.4294 74.7628 97.4122 74.7564 97.3778 74.736L91.0769 85.3841ZM97.6013 72.3793C93.9898 67.3566 93.9886 67.3574 93.9874 67.3583C93.9869 67.3586 93.9857 67.3595 93.9848 67.3601C93.983 67.3614 93.9812 67.3628 93.9791 67.3642C93.9751 67.3671 93.9707 67.3703 93.9657 67.3739C93.9559 67.3811 93.9442 67.3896 93.9307 67.3994C93.9038 67.4191 93.8697 67.4441 93.8292 67.4742C93.7482 67.5344 93.6408 67.6153 93.5117 67.715C93.2549 67.9132 92.9056 68.1909 92.5052 68.531C91.7364 69.1841 90.6399 70.1846 89.6463 71.3844C88.7898 72.4186 87.3413 74.3777 86.9494 76.9149C86.7289 78.3426 86.8305 80.0603 87.6626 81.764C88.4857 83.4492 89.7761 84.6144 91.0769 85.3841L97.3778 74.736C97.6764 74.9127 98.3205 75.3931 98.78 76.3338C99.2486 77.2932 99.2692 78.207 99.1771 78.8034C99.1341 79.0822 99.0689 79.2851 99.025 79.4021C98.9808 79.5197 98.946 79.5827 98.9427 79.5886C98.9386 79.596 98.9529 79.5695 98.9951 79.5095C99.0367 79.4504 99.0958 79.3722 99.1756 79.2758C99.5267 78.8519 100.025 78.377 100.515 77.9606C100.745 77.766 100.941 77.6104 101.072 77.509C101.137 77.4589 101.184 77.4234 101.21 77.4047C101.222 77.3954 101.229 77.3903 101.23 77.3897C101.23 77.3894 101.229 77.3903 101.226 77.3923C101.225 77.3933 101.223 77.3947 101.221 77.3963C101.22 77.3971 101.218 77.3979 101.217 77.3989C101.216 77.3994 101.215 77.4001 101.215 77.4004C101.214 77.4012 101.213 77.402 97.6013 72.3793ZM103.171 56.0876C101.129 59.8309 98.7409 62.7269 96.8666 64.6794C95.9341 65.6507 95.143 66.3736 94.6082 66.8363C94.3412 67.0672 94.1396 67.232 94.018 67.3292C93.9572 67.3778 93.9166 67.4093 93.898 67.4237C93.8887 67.4309 93.8849 67.4337 93.8868 67.4323C93.8878 67.4315 93.8902 67.4297 93.894 67.4268C93.896 67.4254 93.8983 67.4236 93.9009 67.4216C93.9023 67.4206 93.9037 67.4196 93.9052 67.4184C93.906 67.4179 93.9072 67.417 93.9076 67.4167C93.9088 67.4158 93.9101 67.4148 97.6013 72.3793C101.293 77.3437 101.294 77.3427 101.295 77.3417C101.296 77.3414 101.297 77.3404 101.298 77.3397C101.3 77.3382 101.302 77.3368 101.304 77.3352C101.308 77.3321 101.313 77.3286 101.318 77.3249C101.328 77.3174 101.339 77.3088 101.352 77.299C101.378 77.2793 101.41 77.2549 101.448 77.2258C101.523 77.1676 101.622 77.0905 101.742 76.9946C101.982 76.8028 102.308 76.5354 102.703 76.1936C103.492 75.5108 104.565 74.5258 105.792 73.2478C108.236 70.7016 111.349 66.933 114.033 62.0123L103.171 56.0876ZM113.721 36.2086C107.603 37.1208 107.602 37.1185 107.602 37.1162C107.602 37.1155 107.601 37.1133 107.601 37.1118C107.601 37.109 107.6 37.1063 107.6 37.1038C107.599 37.0988 107.599 37.0943 107.598 37.0905C107.597 37.0828 107.596 37.0776 107.596 37.0748C107.595 37.0692 107.596 37.0733 107.597 37.0867C107.601 37.1135 107.608 37.1776 107.618 37.277C107.637 37.4759 107.664 37.8146 107.681 38.2766C107.714 39.2021 107.707 40.6109 107.52 42.3734C107.146 45.899 106.058 50.7936 103.171 56.0879L114.033 62.012C117.84 55.0311 119.312 48.5049 119.824 43.6787C120.08 41.2653 120.097 39.2653 120.045 37.8261C120.019 37.1057 119.975 36.523 119.934 36.0962C119.914 35.8827 119.894 35.7078 119.877 35.5738C119.869 35.5069 119.862 35.4501 119.855 35.4037C119.852 35.3806 119.849 35.36 119.847 35.3421C119.845 35.3332 119.844 35.3249 119.843 35.3173C119.842 35.3134 119.842 35.3098 119.841 35.3063C119.841 35.3046 119.841 35.3021 119.841 35.3012C119.84 35.2988 119.84 35.2964 113.721 36.2086ZM112.336 40.824C113.48 39.5989 113.77 39.6376 113.288 39.8238C112.969 39.9469 112.291 40.1373 111.377 40.0294C110.418 39.9161 109.577 39.5176 108.938 39.0003C108.351 38.525 108.034 38.0326 107.883 37.7576C107.728 37.4766 107.66 37.263 107.634 37.1726C107.604 37.0715 107.59 36.9946 107.581 36.9385C107.576 36.9061 107.571 36.8692 107.566 36.8253C107.564 36.803 107.561 36.7783 107.559 36.7507C107.558 36.7369 107.556 36.7223 107.555 36.7069C107.554 36.6992 107.554 36.6912 107.553 36.6831C107.553 36.679 107.553 36.6749 107.552 36.6707C107.552 36.6686 107.552 36.6654 107.552 36.6643C107.551 36.6611 107.551 36.6579 113.721 36.2086C119.891 35.7593 119.891 35.756 119.891 35.7527C119.891 35.7516 119.89 35.7483 119.89 35.746C119.89 35.7415 119.89 35.7369 119.889 35.7321C119.888 35.7226 119.888 35.7127 119.887 35.7024C119.885 35.6817 119.883 35.6593 119.881 35.6353C119.877 35.5872 119.871 35.5323 119.865 35.4712C119.851 35.3495 119.832 35.2 119.805 35.0287C119.753 34.6946 119.665 34.2337 119.512 33.7087C119.266 32.8683 118.589 30.8954 116.727 29.3869C114.335 27.4487 111.355 27.3075 108.832 28.2812C106.726 29.0942 104.901 30.6568 103.292 32.3809L112.336 40.824ZM91.1385 52.8617C98.1422 50.744 106.063 47.1846 112.218 40.9474L103.41 32.2574C99.2724 36.4512 93.5307 39.2125 87.5575 41.0186L91.1385 52.8617ZM87.7092 40.9748C86.9646 41.1794 86.3854 41.3022 85.9578 41.3672C85.5062 41.4359 85.3638 41.4181 85.447 41.4241C85.4765 41.4263 86.1861 41.4666 87.0661 42.028C87.5424 42.3318 88.0435 42.7748 88.4609 43.3823C88.88 43.9922 89.1215 44.6323 89.2355 45.2165L77.092 47.5868C77.4951 49.6518 78.7067 51.3712 80.412 52.459C81.9101 53.4147 83.466 53.6856 84.5511 53.7643C86.6833 53.9191 88.9832 53.4559 90.9868 52.9055L87.7092 40.9748ZM89.2355 45.2165C89.503 46.587 89.1509 47.6107 89.0409 47.9014C89.0066 47.9922 88.9768 48.0603 88.9583 48.101C88.9397 48.1417 88.9278 48.165 88.9276 48.1654C88.9275 48.1656 88.934 48.1528 88.9523 48.1192C88.9717 48.0833 88.9937 48.0435 89.0302 47.9774L78.2027 41.9902C78.1178 42.1438 77.7451 42.7927 77.4681 43.5251C77.179 44.2896 76.7381 45.7735 77.092 47.5867L89.2355 45.2165ZM89.0302 47.9774C89.132 47.7934 89.5932 46.9972 89.9052 46.0688C90.2531 45.0333 90.5952 43.3494 90.0137 41.411L78.1628 44.9662C77.7645 43.6384 78.0307 42.5629 78.177 42.1277C78.2482 41.9156 78.3126 41.7886 78.313 41.7879C78.3154 41.783 78.3101 41.794 78.2906 41.8301C78.2695 41.8692 78.2453 41.913 78.2027 41.9902L89.0302 47.9774ZM90.0138 41.4112C89.6852 40.3158 88.9792 38.8359 87.4676 37.686C85.9904 36.5622 84.4176 36.2685 83.3363 36.2123C81.5329 36.1186 79.6552 36.6465 78.4569 36.9924L81.8887 48.8796C82.4866 48.707 82.8498 48.6185 83.0627 48.5765C83.3167 48.5265 83.1247 48.5907 82.6943 48.5683C82.2203 48.5437 81.1074 48.3935 79.9765 47.5332C78.8112 46.6467 78.338 45.5502 78.1628 44.966L90.0138 41.4112ZM78.4569 36.9924C77.4593 37.2804 75.5185 37.9799 74.5302 38.3964L79.335 49.798C79.9431 49.5418 81.4234 49.014 81.8887 48.8796L78.4569 36.9924ZM74.5302 38.3964C74.1426 38.5597 73.874 38.6675 73.6165 38.7709L78.2237 50.2538C78.4959 50.1445 78.8453 50.0044 79.335 49.798L74.5302 38.3964ZM73.6165 38.7709C72.5121 39.2139 71.9295 39.4672 69.0606 40.9224L74.6576 51.9568C76.0595 51.2457 76.7849 50.8885 77.2455 50.673C77.6443 50.4862 77.8303 50.4116 78.2236 50.2538L73.6165 38.7709ZM69.0606 40.9224C62.2252 44.3895 58.488 46.7507 55.4957 48.8686L62.6437 58.9676C65.0722 57.2487 68.2787 55.1923 74.6576 51.9568L69.0606 40.9224ZM55.4957 48.8686C43.4643 57.3844 36.6086 67.636 35.0831 80.8277L47.3739 82.2491C48.4197 73.2054 52.8938 65.8685 62.6437 58.9676L55.4957 48.8686ZM47.0516 85.4357C47.0516 84.524 47.1412 83.5953 47.3138 82.6518L35.1432 80.4251C34.8484 82.0361 34.6789 83.712 34.6789 85.4357H47.0516ZM57.1613 115.669C52.4056 107.938 47.0516 97.0727 47.0516 85.4357H34.6789C34.6789 100.586 41.5331 113.877 46.6229 122.151L57.1613 115.669Z" fill="#FDF7EA" mask="url(#path-2-inside-1_1353_2738)"/>
</svg>
