<svg width="363" height="127" viewBox="0 0 363 127" fill="none" xmlns="http://www.w3.org/2000/svg">
<path d="M20.569 125.113L0 62.418H10.509L20.4792 93.4062L26.4972 115.233H26.8565L32.9643 93.4062L42.9344 62.418H53.174L32.3355 125.113H20.569Z" fill="#2D2520"/>
<path d="M77.2193 126.191C73.866 126.191 70.872 125.622 68.2372 124.484C65.6025 123.346 63.357 121.73 61.5007 119.634C59.6444 117.478 58.2072 114.903 57.1893 111.909C56.2312 108.855 55.7521 105.472 55.7521 101.76C55.7521 98.0469 56.2312 94.6936 57.1893 91.6996C58.2072 88.6457 59.6444 86.0708 61.5007 83.975C63.357 81.8193 65.6025 80.1726 68.2372 79.0348C70.872 77.8971 73.866 77.3282 77.2193 77.3282C80.6325 77.3282 83.6265 77.927 86.2014 79.1247C88.8362 80.3223 91.0218 81.9989 92.7583 84.1546C94.4949 86.2504 95.7823 88.7056 96.6206 91.5199C97.5189 94.3343 97.968 97.3583 97.968 100.592V104.275H65.9019V105.801C65.9019 109.394 66.9498 112.358 69.0456 114.694C71.2013 116.969 74.2552 118.107 78.2074 118.107C81.0816 118.107 83.5068 117.478 85.4828 116.221C87.4589 114.963 89.1356 113.257 90.5128 111.101L96.2614 116.76C94.5248 119.634 92.0098 121.939 88.7164 123.676C85.423 125.352 81.5906 126.191 77.2193 126.191ZM77.2193 84.963C75.5427 84.963 73.9858 85.2624 72.5486 85.8612C71.1714 86.46 69.9738 87.2984 68.9558 88.3762C67.9977 89.4541 67.2492 90.7415 66.7103 92.2385C66.1713 93.7355 65.9019 95.3822 65.9019 97.1787V97.8074H87.6385V96.9092C87.6385 93.3164 86.7104 90.4421 84.8541 88.2864C82.9978 86.0708 80.4529 84.963 77.2193 84.963Z" fill="#2D2520"/>
<path d="M108.806 125.113V78.4061H118.597V86.1307H119.046C120.064 83.6157 121.591 81.5199 123.627 79.8432C125.722 78.1666 128.567 77.3282 132.16 77.3282C136.95 77.3282 140.663 78.9151 143.297 82.0887C145.992 85.2025 147.339 89.6636 147.339 95.4721V125.113H137.549V96.7296C137.549 89.4241 134.615 85.7714 128.746 85.7714C127.489 85.7714 126.231 85.951 124.974 86.3103C123.776 86.6097 122.698 87.0888 121.74 87.7475C120.782 88.4062 120.004 89.2445 119.405 90.2625C118.866 91.2804 118.597 92.478 118.597 93.8553V125.113H108.806Z" fill="#2D2520"/>
<path d="M173.843 125.113C170.43 125.113 167.855 124.245 166.119 122.508C164.382 120.712 163.514 118.197 163.514 114.963V86.4002H156.239V78.4061H160.191C161.807 78.4061 162.915 78.0468 163.514 77.3282C164.173 76.6097 164.502 75.442 164.502 73.8252V65.6515H173.305V78.4061H183.095V86.4002H173.305V117.119H182.376V125.113H173.843Z" fill="#2D2520"/>
<path d="M222.009 117.388H221.649C221.23 118.526 220.661 119.634 219.943 120.712C219.284 121.79 218.416 122.748 217.338 123.586C216.32 124.364 215.062 124.993 213.565 125.472C212.128 125.951 210.452 126.191 208.535 126.191C203.685 126.191 199.913 124.634 197.218 121.52C194.583 118.406 193.266 113.945 193.266 108.137V78.4061H203.056V106.879C203.056 114.125 206.05 117.748 212.038 117.748C213.296 117.748 214.523 117.598 215.721 117.299C216.919 116.939 217.967 116.43 218.865 115.772C219.823 115.113 220.571 114.275 221.11 113.257C221.709 112.239 222.009 111.041 222.009 109.664V78.4061H231.799V125.113H222.009V117.388Z" fill="#2D2520"/>
<path d="M245.818 125.113V78.4061H255.609V87.3882H256.058C256.716 84.993 258.094 82.8971 260.189 81.1007C262.285 79.3043 265.189 78.4061 268.902 78.4061H271.507V87.8373H267.645C263.752 87.8373 260.758 88.466 258.662 89.7235C256.627 90.981 255.609 92.8373 255.609 95.2924V125.113H245.818Z" fill="#2D2520"/>
<path d="M298.088 126.191C294.734 126.191 291.74 125.622 289.105 124.484C286.471 123.346 284.225 121.73 282.369 119.634C280.513 117.478 279.075 114.903 278.057 111.909C277.099 108.855 276.62 105.472 276.62 101.76C276.62 98.0469 277.099 94.6936 278.057 91.6996C279.075 88.6457 280.513 86.0708 282.369 83.975C284.225 81.8193 286.471 80.1726 289.105 79.0348C291.74 77.8971 294.734 77.3282 298.088 77.3282C301.501 77.3282 304.495 77.927 307.07 79.1247C309.704 80.3223 311.89 81.9989 313.627 84.1546C315.363 86.2504 316.651 88.7056 317.489 91.5199C318.387 94.3343 318.836 97.3583 318.836 100.592V104.275H286.77V105.801C286.77 109.394 287.818 112.358 289.914 114.694C292.07 116.969 295.123 118.107 299.076 118.107C301.95 118.107 304.375 117.478 306.351 116.221C308.327 114.963 310.004 113.257 311.381 111.101L317.13 116.76C315.393 119.634 312.878 121.939 309.585 123.676C306.291 125.352 302.459 126.191 298.088 126.191ZM298.088 84.963C296.411 84.963 294.854 85.2624 293.417 85.8612C292.04 86.46 290.842 87.2984 289.824 88.3762C288.866 89.4541 288.117 90.7415 287.578 92.2385C287.04 93.7355 286.77 95.3822 286.77 97.1787V97.8074H308.507V96.9092C308.507 93.3164 307.579 90.4421 305.722 88.2864C303.866 86.0708 301.321 84.963 298.088 84.963Z" fill="#2D2520"/>
<path d="M344.495 126.191C340.064 126.191 336.351 125.412 333.357 123.855C330.363 122.299 327.758 120.143 325.543 117.388L331.83 111.64C333.567 113.736 335.483 115.382 337.579 116.58C339.734 117.718 342.219 118.287 345.034 118.287C347.908 118.287 350.034 117.748 351.411 116.67C352.848 115.532 353.567 113.975 353.567 111.999C353.567 110.502 353.058 109.245 352.04 108.227C351.082 107.149 349.375 106.46 346.92 106.161L342.609 105.622C337.818 105.023 334.046 103.646 331.291 101.49C328.596 99.2745 327.249 96.011 327.249 91.6996C327.249 89.4241 327.668 87.4181 328.507 85.6816C329.345 83.8852 330.513 82.3882 332.01 81.1905C333.567 79.933 335.393 78.975 337.489 78.3163C339.644 77.6576 342.01 77.3282 344.585 77.3282C348.776 77.3282 352.189 77.9869 354.824 79.3043C357.519 80.6217 359.914 82.448 362.01 84.7834L355.992 90.5319C354.794 89.0948 353.207 87.8672 351.231 86.8493C349.315 85.7714 347.1 85.2325 344.585 85.2325C341.89 85.2325 339.884 85.7714 338.567 86.8493C337.309 87.9271 336.68 89.3343 336.68 91.0708C336.68 92.8673 337.249 94.2146 338.387 95.1128C339.525 96.011 341.351 96.6697 343.866 97.0888L348.177 97.6278C353.327 98.4062 357.07 99.9332 359.405 102.209C361.8 104.424 362.998 107.418 362.998 111.191C362.998 113.466 362.549 115.532 361.651 117.388C360.812 119.185 359.585 120.742 357.968 122.059C356.351 123.376 354.405 124.394 352.13 125.113C349.854 125.832 347.309 126.191 344.495 126.191Z" fill="#2D2520"/>
<mask id="path-2-inside-1_1368_3256" fill="white">
<path fill-rule="evenodd" clip-rule="evenodd" d="M7.79455 36.7216C10.5156 41.1433 12.7265 40.8032 12.7265 40.8032C15.1074 40.6332 15.4475 37.572 15.4475 37.572C15.4475 37.572 15.7876 35.1911 16.808 33.8305C18.1141 32.0891 20.3794 30.7693 24.6311 29.0687C29.1209 27.0465 31.4576 23.0533 31.0652 20.4046C30.9174 19.4071 30.2659 19.6274 29.3606 19.9335C28.4407 20.2445 27.2586 20.6441 26.0766 19.9447C24.3454 18.9202 27.5336 16.6278 27.5336 16.6278C27.5336 16.6278 30.2432 14.6131 32.284 10.8717C35.1751 5.57071 34.4949 1.00785 34.4949 1.00785C34.4949 1.00785 34.3217 -1.36926 31.9439 1.17791C29.7154 3.43645 26.7551 4.80252 23.9461 5.64923C22.389 6.07407 21.4213 6.03908 21.2986 5.41036C21.2612 5.21913 21.3752 5.01296 21.4941 4.79808C21.6322 4.54821 21.7769 4.28655 21.6978 4.02284C21.5654 3.58133 21.1583 3.58139 20.007 3.91377C19.6911 4.00496 18.9524 4.26996 18.6077 4.41522C18.4183 4.49504 18.2849 4.54858 18.1705 4.59447C17.8012 4.74263 17.6305 4.81113 16.4168 5.42675C13.5636 6.87399 12.0642 7.82783 10.8938 8.65627C6.18978 11.9857 3.74344 15.7843 3.18891 20.5868C3.08842 21.1372 3.03271 21.6983 3.03271 22.2661C3.03271 28.05 5.66873 33.2659 7.79455 36.7216Z"/>
</mask>
<path fill-rule="evenodd" clip-rule="evenodd" d="M7.79455 36.7216C10.5156 41.1433 12.7265 40.8032 12.7265 40.8032C15.1074 40.6332 15.4475 37.572 15.4475 37.572C15.4475 37.572 15.7876 35.1911 16.808 33.8305C18.1141 32.0891 20.3794 30.7693 24.6311 29.0687C29.1209 27.0465 31.4576 23.0533 31.0652 20.4046C30.9174 19.4071 30.2659 19.6274 29.3606 19.9335C28.4407 20.2445 27.2586 20.6441 26.0766 19.9447C24.3454 18.9202 27.5336 16.6278 27.5336 16.6278C27.5336 16.6278 30.2432 14.6131 32.284 10.8717C35.1751 5.57071 34.4949 1.00785 34.4949 1.00785C34.4949 1.00785 34.3217 -1.36926 31.9439 1.17791C29.7154 3.43645 26.7551 4.80252 23.9461 5.64923C22.389 6.07407 21.4213 6.03908 21.2986 5.41036C21.2612 5.21913 21.3752 5.01296 21.4941 4.79808C21.6322 4.54821 21.7769 4.28655 21.6978 4.02284C21.5654 3.58133 21.1583 3.58139 20.007 3.91377C19.6911 4.00496 18.9524 4.26996 18.6077 4.41522C18.4183 4.49504 18.2849 4.54858 18.1705 4.59447C17.8012 4.74263 17.6305 4.81113 16.4168 5.42675C13.5636 6.87399 12.0642 7.82783 10.8938 8.65627C6.18978 11.9857 3.74344 15.7843 3.18891 20.5868C3.08842 21.1372 3.03271 21.6983 3.03271 22.2661C3.03271 28.05 5.66873 33.2659 7.79455 36.7216Z" fill="#2D2520"/>
<path d="M12.7265 40.8032L12.5432 38.2376L12.4388 38.2451L12.3353 38.261L12.7265 40.8032ZM7.79455 36.7216L5.60375 38.0693L5.60397 38.0697L7.79455 36.7216ZM15.4475 37.572L12.9012 37.2082L12.8955 37.248L12.8911 37.2879L15.4475 37.572ZM16.808 33.8305L18.8657 35.3738L18.8657 35.3738L16.808 33.8305ZM24.6311 29.0687L25.5863 31.4569L25.6373 31.4365L25.6873 31.4139L24.6311 29.0687ZM31.0652 20.4046L33.6095 20.0277L33.6095 20.0277L31.0652 20.4046ZM29.3606 19.9335L30.1844 22.3701L30.1844 22.3701L29.3606 19.9335ZM26.0766 19.9447L24.7667 22.1583L24.7667 22.1583L26.0766 19.9447ZM27.5336 16.6278L29.0352 18.7161L29.0519 18.7041L29.0683 18.6919L27.5336 16.6278ZM32.284 10.8717L34.5421 12.1033L34.5421 12.1032L32.284 10.8717ZM34.4949 1.00785L31.9295 1.19467L31.9366 1.2913L31.9508 1.38713L34.4949 1.00785ZM31.9439 1.17791L33.7748 2.98446L33.7998 2.95913L33.8241 2.93313L31.9439 1.17791ZM23.9461 5.64923L24.6231 8.13066L24.6559 8.12172L24.6885 8.11191L23.9461 5.64923ZM21.2986 5.41036L23.8231 4.91762L23.8231 4.91761L21.2986 5.41036ZM21.4941 4.79808L19.2431 3.55339L19.2431 3.5534L21.4941 4.79808ZM21.6978 4.02284L19.2341 4.76184L19.2342 4.76192L21.6978 4.02284ZM20.007 3.91377L19.2935 1.44256L19.2935 1.44256L20.007 3.91377ZM18.6077 4.41522L19.6066 6.78549L19.6066 6.78548L18.6077 4.41522ZM18.1705 4.59447L19.1282 6.98164L19.1282 6.98163L18.1705 4.59447ZM16.4168 5.42675L17.5803 7.72067L17.5803 7.72067L16.4168 5.42675ZM10.8938 8.65627L12.3798 10.7557L12.3798 10.7557L10.8938 8.65627ZM3.18891 20.5868L5.71921 21.0488L5.73438 20.9657L5.74406 20.8819L3.18891 20.5868ZM12.7265 40.8032C12.3353 38.261 12.338 38.2606 12.3406 38.2602C12.3415 38.2601 12.3441 38.2597 12.3459 38.2594C12.3494 38.2589 12.3528 38.2584 12.3563 38.2579C12.3632 38.2569 12.3699 38.2559 12.3766 38.255C12.39 38.2532 12.403 38.2515 12.4155 38.25C12.4407 38.247 12.4643 38.2446 12.4863 38.2428C12.5304 38.2391 12.5683 38.2375 12.6002 38.2372C12.6643 38.2365 12.7028 38.241 12.7174 38.2432C12.7514 38.2483 12.6655 38.2422 12.4744 38.1421C12.0936 37.9426 11.1715 37.3015 9.98513 35.3736L5.60397 38.0697C7.13861 40.5635 8.68248 41.9631 10.0874 42.699C10.7892 43.0666 11.426 43.2519 11.9596 43.3313C12.2239 43.3707 12.4565 43.3832 12.6521 43.3812C12.7498 43.3802 12.8378 43.3756 12.9156 43.3691C12.9545 43.3659 12.9908 43.3621 13.0245 43.3581C13.0414 43.3561 13.0575 43.354 13.0731 43.3519C13.0808 43.3508 13.0884 43.3498 13.0958 43.3487C13.0995 43.3482 13.1032 43.3476 13.1068 43.3471C13.1086 43.3468 13.1113 43.3464 13.1122 43.3463C13.1149 43.3459 13.1176 43.3454 12.7265 40.8032ZM15.4475 37.572C12.8911 37.2879 12.8912 37.287 12.8913 37.2861C12.8913 37.2858 12.8915 37.2848 12.8915 37.2842C12.8917 37.2831 12.8918 37.2819 12.8919 37.2808C12.8922 37.2786 12.8924 37.2766 12.8926 37.2747C12.8931 37.271 12.8934 37.2679 12.8937 37.2654C12.8943 37.2604 12.8947 37.258 12.8947 37.2578C12.8947 37.2575 12.8936 37.2662 12.8908 37.2826C12.8853 37.3159 12.8741 37.377 12.8552 37.4561C12.8152 37.624 12.7527 37.8222 12.6669 37.9986C12.5781 38.181 12.5072 38.2524 12.4927 38.2647C12.4909 38.2662 12.5035 38.2556 12.5278 38.2454C12.5538 38.2344 12.5641 38.2361 12.5432 38.2376L12.9097 43.3688C15.404 43.1907 16.7137 41.4394 17.2928 40.249C17.5896 39.6389 17.761 39.0612 17.8591 38.6497C17.9093 38.4393 17.9433 38.2598 17.9656 38.1251C17.9769 38.0574 17.9853 38.0002 17.9915 37.955C17.9946 37.9323 17.9971 37.9127 17.9992 37.8961C18.0002 37.8879 18.0011 37.8804 18.0019 37.8737C18.0023 37.8703 18.0026 37.8672 18.003 37.8642C18.0031 37.8628 18.0033 37.8613 18.0035 37.86C18.0035 37.8593 18.0037 37.8583 18.0037 37.858C18.0038 37.857 18.0039 37.856 15.4475 37.572ZM14.7503 32.2872C13.9467 33.3587 13.5039 34.6695 13.2668 35.523C13.1389 35.9836 13.0499 36.3905 12.9923 36.6848C12.9633 36.8329 12.9418 36.955 12.927 37.0441C12.9195 37.0888 12.9137 37.1253 12.9095 37.1529C12.9074 37.1667 12.9056 37.1783 12.9042 37.1875C12.9036 37.1921 12.903 37.1962 12.9025 37.1996C12.9022 37.2014 12.902 37.203 12.9018 37.2044C12.9017 37.2051 12.9016 37.2058 12.9015 37.2064C12.9014 37.2067 12.9014 37.2072 12.9014 37.2073C12.9013 37.2078 12.9012 37.2082 15.4475 37.572C17.9938 37.9357 17.9937 37.9361 17.9937 37.9365C17.9937 37.9367 17.9936 37.9371 17.9936 37.9373C17.9935 37.9378 17.9934 37.9383 17.9934 37.9387C17.9932 37.9395 17.9931 37.9403 17.9931 37.9408C17.9929 37.942 17.9928 37.9426 17.9928 37.9427C17.9928 37.9428 17.993 37.9409 17.9937 37.9369C17.9949 37.9289 17.9974 37.913 18.0013 37.8899C18.009 37.8435 18.022 37.7689 18.0409 37.6726C18.079 37.4779 18.1388 37.2046 18.2234 36.8999C18.4115 36.2228 18.649 35.6628 18.8657 35.3738L14.7503 32.2872ZM23.6758 26.6805C19.4269 28.3801 16.5298 29.9146 14.7503 32.2872L18.8657 35.3738C19.6985 34.2635 21.3319 33.1586 25.5863 31.4569L23.6758 26.6805ZM28.5208 20.7815C28.5901 21.2494 28.4308 22.2568 27.5648 23.5066C26.738 24.6997 25.3992 25.9017 23.5748 26.7234L25.6873 31.4139C28.3528 30.2134 30.4272 28.4077 31.7931 26.4366C33.1198 24.522 33.9326 22.2085 33.6095 20.0277L28.5208 20.7815ZM30.1844 22.3701C30.4372 22.2846 30.5447 22.25 30.6172 22.2317C30.7074 22.209 30.5289 22.2703 30.2246 22.2379C29.8217 22.195 29.2901 21.9949 28.8904 21.5169C28.7216 21.315 28.6299 21.1247 28.5819 20.9983C28.5351 20.8749 28.5226 20.7933 28.5208 20.7815L33.6095 20.0277C33.5371 19.5386 33.3576 18.8399 32.8372 18.2174C32.2456 17.5097 31.4667 17.1968 30.7694 17.1225C30.1706 17.0588 29.6503 17.1702 29.359 17.2437C29.0501 17.3216 28.7367 17.4292 28.5369 17.4968L30.1844 22.3701ZM24.7667 22.1583C27.0902 23.5332 29.3994 22.6355 30.1844 22.3701L28.5369 17.4968C28.0387 17.6652 27.7919 17.7373 27.5813 17.7567C27.444 17.7693 27.4193 17.7504 27.3865 17.731L24.7667 22.1583ZM27.5336 16.6278C26.032 14.5395 26.0315 14.5398 26.031 14.5402C26.0308 14.5403 26.0303 14.5407 26.03 14.541C26.0292 14.5415 26.0284 14.5421 26.0276 14.5427C26.0259 14.5439 26.024 14.5452 26.0219 14.5467C26.0178 14.5498 26.0128 14.5534 26.0071 14.5575C25.9957 14.5659 25.9812 14.5765 25.9639 14.5894C25.9294 14.615 25.8835 14.6496 25.8283 14.6922C25.7184 14.777 25.5688 14.896 25.3973 15.0417C25.0675 15.3218 24.5988 15.7496 24.1749 16.2615C23.808 16.7046 23.1969 17.5334 23.0319 18.6016C22.9392 19.2019 22.9821 19.9226 23.331 20.6369C23.6761 21.3435 24.2178 21.8335 24.7667 22.1583L27.3865 17.731C27.5026 17.7998 27.7652 17.994 27.9533 18.3791C28.1452 18.772 28.1532 19.1455 28.1159 19.3868C28.0985 19.4994 28.0724 19.5804 28.0554 19.6256C28.0466 19.6491 28.039 19.6661 28.0341 19.6766C28.0291 19.6872 28.0261 19.6926 28.026 19.6929C28.0258 19.6932 28.0279 19.6895 28.0327 19.6818C28.0376 19.6741 28.0446 19.6634 28.0542 19.6497C28.0739 19.6218 28.1011 19.5859 28.1369 19.5426C28.2937 19.3533 28.5138 19.144 28.7277 18.9623C28.8281 18.8771 28.914 18.8089 28.9717 18.7644C29.0003 18.7423 29.0212 18.7266 29.0325 18.7182C29.0382 18.714 29.0414 18.7117 29.0419 18.7113C29.0422 18.7111 29.0418 18.7114 29.0407 18.7122C29.0401 18.7126 29.0394 18.7131 29.0385 18.7138C29.038 18.7141 29.0375 18.7144 29.037 18.7148C29.0367 18.715 29.0363 18.7154 29.0361 18.7154C29.0357 18.7158 29.0352 18.7161 27.5336 16.6278ZM30.0259 9.63998C29.1391 11.2659 28.102 12.5236 27.288 13.3715C26.883 13.7934 26.5391 14.1077 26.3061 14.3093C26.1898 14.4099 26.1017 14.4819 26.0482 14.5246C26.0215 14.546 26.0035 14.5599 25.995 14.5665C25.9908 14.5698 25.9889 14.5712 25.9895 14.5707C25.9898 14.5705 25.9907 14.5698 25.9923 14.5686C25.9931 14.568 25.994 14.5673 25.9951 14.5665C25.9957 14.5661 25.9962 14.5657 25.9969 14.5652C25.9972 14.565 25.9977 14.5646 25.9979 14.5645C25.9984 14.5641 25.9989 14.5637 27.5336 16.6278C29.0683 18.6919 29.0689 18.6915 29.0694 18.6911C29.0696 18.6909 29.0702 18.6905 29.0706 18.6902C29.0714 18.6896 29.0722 18.689 29.0731 18.6883C29.0749 18.687 29.0768 18.6856 29.0789 18.684C29.0831 18.6809 29.0879 18.6772 29.0934 18.6731C29.1044 18.6648 29.118 18.6544 29.1341 18.642C29.1663 18.6172 29.2084 18.5843 29.2598 18.5432C29.3625 18.4612 29.5021 18.3465 29.6717 18.1998C30.0105 17.9067 30.4716 17.4835 30.999 16.934C32.05 15.8393 33.3882 14.2188 34.5421 12.1033L30.0259 9.63998ZM34.4949 1.00785C31.9508 1.38713 31.9507 1.38616 31.9506 1.38522C31.9505 1.38492 31.9504 1.38399 31.9503 1.38341C31.9501 1.38223 31.95 1.38113 31.9498 1.38009C31.9495 1.37801 31.9492 1.37619 31.949 1.37464C31.9486 1.37154 31.9483 1.3695 31.9482 1.3685C31.9479 1.3665 31.9482 1.36867 31.949 1.37488C31.9505 1.38732 31.9538 1.41591 31.958 1.45973C31.9665 1.54747 31.9782 1.6957 31.9855 1.89726C32.0003 2.30108 31.9971 2.91417 31.9158 3.68053C31.7532 5.2135 31.2802 7.34026 30.0259 9.64009L34.5421 12.1032C36.1789 9.10211 36.8114 6.29696 37.0314 4.22326C37.1414 3.18628 37.1489 2.32735 37.1264 1.70998C37.1151 1.40095 37.0963 1.15129 37.0788 0.968789C37.0701 0.877496 37.0616 0.802874 37.0546 0.745886C37.0511 0.717388 37.048 0.693284 37.0453 0.673695C37.0439 0.6639 37.0427 0.655232 37.0417 0.647706C37.0411 0.643943 37.0406 0.640466 37.0402 0.637275C37.0399 0.63568 37.0397 0.634157 37.0395 0.632705C37.0394 0.63198 37.0392 0.630944 37.0392 0.630582C37.039 0.629566 37.0389 0.628567 34.4949 1.00785ZM33.8241 2.93313C34.3217 2.40008 34.4594 2.40395 34.2719 2.47632C34.1458 2.52498 33.8695 2.60343 33.4943 2.55912C33.1002 2.51258 32.7541 2.3487 32.4919 2.13622C32.2511 1.94113 32.1215 1.73974 32.0606 1.6289C31.9983 1.51558 31.9713 1.43049 31.9614 1.39633C31.9501 1.35771 31.9448 1.32881 31.9415 1.30772C31.9395 1.29537 31.9376 1.2809 31.9357 1.26327C31.9347 1.25433 31.9337 1.24429 31.9326 1.233C31.9321 1.22734 31.9316 1.22133 31.9311 1.21496C31.9308 1.21177 31.9306 1.20849 31.9303 1.20511C31.9302 1.20342 31.93 1.20171 31.9299 1.19997C31.9298 1.1991 31.9297 1.19777 31.9297 1.19734C31.9296 1.19601 31.9295 1.19467 34.4949 1.00785C37.0602 0.821025 37.0601 0.819669 37.06 0.818303C37.06 0.817834 37.0599 0.816452 37.0598 0.815511C37.0596 0.813627 37.0595 0.811696 37.0593 0.809719C37.059 0.805766 37.0587 0.801627 37.0584 0.797307C37.0577 0.78867 37.0569 0.779293 37.0559 0.769214C37.0541 0.749078 37.0518 0.726002 37.049 0.700277C37.0434 0.649071 37.0354 0.586014 37.0241 0.51364C37.002 0.372501 36.9646 0.177792 36.8999 -0.0438843C36.796 -0.400131 36.5107 -1.22849 35.7303 -1.86083C34.7293 -2.67179 33.4812 -2.7327 32.4194 -2.32281C31.5307 -1.97976 30.755 -1.31784 30.0637 -0.577303L33.8241 2.93313ZM24.6885 8.11191C27.7114 7.2007 31.1261 5.66885 33.7748 2.98446L30.113 -0.628631C28.3047 1.20404 25.7987 2.40434 23.2038 3.18655L24.6885 8.11191ZM23.2691 3.1678C22.9486 3.25523 22.6982 3.30789 22.5121 3.33575C22.316 3.3651 22.2498 3.3579 22.2787 3.36009C22.2858 3.36063 22.5753 3.3772 22.9359 3.60903C23.131 3.73444 23.336 3.91685 23.5066 4.16634C23.6779 4.41672 23.7765 4.67894 23.8231 4.91762L18.7741 5.9031C18.9418 6.76244 19.4441 7.47984 20.1542 7.9363C20.7794 8.33824 21.4311 8.45489 21.8902 8.48966C22.7912 8.55792 23.7671 8.36423 24.6231 8.13066L23.2691 3.1678ZM23.8231 4.91761C23.9336 5.48385 23.7879 5.90579 23.7436 6.02287C23.7174 6.09233 23.6963 6.13235 23.6991 6.12684C23.7031 6.11895 23.7113 6.10363 23.745 6.04275L19.2431 3.5534C19.2056 3.62126 19.0485 3.89498 18.9319 4.2033C18.8103 4.52499 18.6262 5.14564 18.7741 5.90311L23.8231 4.91761ZM23.745 6.04276C23.7899 5.96158 23.9842 5.6258 24.1156 5.23496C24.2619 4.79962 24.4047 4.09461 24.1615 3.28375L19.2342 4.76192C19.07 4.21477 19.1801 3.77245 19.2393 3.59633C19.2544 3.55128 19.2682 3.51731 19.2772 3.49635C19.2862 3.47542 19.2923 3.46324 19.2928 3.46225C19.2932 3.46141 19.2903 3.46714 19.2816 3.48335C19.2722 3.50079 19.2615 3.52016 19.2431 3.55339L23.745 6.04276ZM24.1615 3.28384C24.0237 2.82431 23.7282 2.20592 23.097 1.72569C22.48 1.25634 21.8224 1.13304 21.3679 1.10943C20.6084 1.06997 19.8132 1.29254 19.2935 1.44256L20.7204 6.38498C20.9797 6.31012 21.1397 6.271 21.2357 6.25207C21.3488 6.22977 21.2751 6.25581 21.101 6.24677C20.9088 6.23678 20.4498 6.17548 19.9823 5.8199C19.5006 5.45344 19.3058 5.00062 19.2341 4.76184L24.1615 3.28384ZM19.2935 1.44256C18.867 1.5657 18.0326 1.86639 17.6088 2.04496L19.6066 6.78548C19.8722 6.67353 20.5152 6.44422 20.7204 6.38498L19.2935 1.44256ZM17.6088 2.04496C17.4407 2.11583 17.324 2.16265 17.2127 2.20731L19.1282 6.98163C19.2457 6.93451 19.3959 6.87425 19.6066 6.78549L17.6088 2.04496ZM17.2127 2.20731C16.7398 2.39705 16.4912 2.50491 15.2532 3.13284L17.5803 7.72067C18.1858 7.41356 18.5002 7.25871 18.7007 7.16488C18.8755 7.08306 18.9578 7.05001 19.1282 6.98164L17.2127 2.20731ZM15.2532 3.13284C12.3051 4.62821 10.6955 5.64543 9.40782 6.55681L12.3798 10.7557C13.433 10.0102 14.822 9.11976 17.5803 7.72067L15.2532 3.13284ZM9.40782 6.55681C4.22934 10.2221 1.28787 14.6268 0.633751 20.2918L5.74406 20.8819C6.199 16.9419 8.15021 13.7494 12.3798 10.7557L9.40782 6.55681ZM5.60485 22.2661C5.60485 21.8668 5.64402 21.4606 5.71921 21.0488L0.658597 20.1249C0.532826 20.8138 0.460582 21.5299 0.460582 22.2661H5.60485ZM9.98535 35.374C7.929 32.0311 5.60485 27.3196 5.60485 22.2661H0.460582C0.460582 28.7804 3.40847 34.5007 5.60375 38.0693L9.98535 35.374Z" fill="#2D2520" mask="url(#path-2-inside-1_1368_3256)"/>
<path d="M45.269 31.4103V10.9425H57.2331V14.1387H48.9345V19.4756H56.1188V22.5839H48.9345V31.4103H45.269Z" fill="#2D2520"/>
<path d="M60.7647 31.4103V28.5073H63.1986V13.8455H60.7647V10.9425H69.2979V13.8455H66.864V28.5073H69.2979V31.4103H60.7647Z" fill="#2D2520"/>
<path d="M77.383 31.4103H73.7175V10.9425H82.192C83.9906 10.9425 85.3492 11.4898 86.268 12.5846C87.2064 13.6793 87.6756 15.2042 87.6756 17.1591C87.6756 18.7034 87.3823 19.9839 86.7959 21.0005C86.2094 21.9975 85.3492 22.6817 84.2154 23.0531L87.9395 31.4103H83.9808L80.6086 23.3463H77.383V31.4103ZM81.8108 20.2967C82.4364 20.2967 82.9251 20.1305 83.277 19.7982C83.6485 19.4659 83.8342 18.9087 83.8342 18.1267V16.3087C83.8342 15.5267 83.6485 14.9696 83.277 14.6372C82.9251 14.3049 82.4364 14.1387 81.8108 14.1387H77.383V20.2967H81.8108Z" fill="#2D2520"/>
<path d="M92.2086 31.4103V10.9425H104.495V14.1387H95.874V19.4756H103.41V22.5839H95.874V28.2141H104.495V31.4103H92.2086Z" fill="#2D2520"/>
<path d="M112.704 31.4103H109.039V10.9425H117.513C119.312 10.9425 120.67 11.4898 121.589 12.5846C122.528 13.6793 122.997 15.2042 122.997 17.1591C122.997 18.7034 122.704 19.9839 122.117 21.0005C121.531 21.9975 120.67 22.6817 119.537 23.0531L123.261 31.4103H119.302L115.93 23.3463H112.704V31.4103ZM117.132 20.2967C117.758 20.2967 118.246 20.1305 118.598 19.7982C118.97 19.4659 119.155 18.9087 119.155 18.1267V16.3087C119.155 15.5267 118.97 14.9696 118.598 14.6372C118.246 14.3049 117.758 14.1387 117.132 14.1387H112.704V20.2967H117.132Z" fill="#2D2520"/>
<path d="M134.659 31.7622C133.427 31.7622 132.313 31.5667 131.316 31.1757C130.339 30.7652 129.498 30.1396 128.794 29.299C128.11 28.4389 127.572 27.3441 127.181 26.0148C126.81 24.6659 126.624 23.0531 126.624 21.1764C126.624 19.2997 126.81 17.6967 127.181 16.3673C127.572 15.0184 128.11 13.9237 128.794 13.0831C129.498 12.2229 130.339 11.5974 131.316 11.2064C132.313 10.7958 133.427 10.5906 134.659 10.5906C135.89 10.5906 136.995 10.7958 137.972 11.2064C138.969 11.5974 139.81 12.2229 140.494 13.0831C141.198 13.9237 141.736 15.0184 142.107 16.3673C142.498 17.6967 142.694 19.2997 142.694 21.1764C142.694 23.0531 142.498 24.6659 142.107 26.0148C141.736 27.3441 141.198 28.4389 140.494 29.299C139.81 30.1396 138.969 30.7652 137.972 31.1757C136.995 31.5667 135.89 31.7622 134.659 31.7622ZM134.659 28.5366C135.988 28.5366 137.015 28.1261 137.738 27.305C138.461 26.4644 138.823 25.2719 138.823 23.7276V18.6252C138.823 17.0809 138.461 15.8981 137.738 15.0771C137.015 14.2365 135.988 13.8162 134.659 13.8162C133.33 13.8162 132.303 14.2365 131.58 15.0771C130.857 15.8981 130.495 17.0809 130.495 18.6252V23.7276C130.495 25.2719 130.857 26.4644 131.58 27.305C132.303 28.1261 133.33 28.5366 134.659 28.5366Z" fill="#2D2520"/>
<path d="M157.944 31.4103L156.507 26.0734H149.909L148.472 31.4103H144.953L150.936 10.9425H155.569L161.551 31.4103H157.944ZM154.044 17.5109L153.399 14.256H152.988L152.343 17.5109L150.789 23.1118H155.627L154.044 17.5109Z" fill="#2D2520"/>
<path d="M165.171 10.9425H172.15C173.381 10.9425 174.476 11.138 175.434 11.5289C176.411 11.9004 177.232 12.5064 177.897 13.347C178.581 14.1681 179.099 15.2237 179.451 16.5139C179.803 17.8042 179.979 19.3583 179.979 21.1764C179.979 22.9945 179.803 24.5486 179.451 25.8389C179.099 27.1291 178.581 28.1945 177.897 29.0351C177.232 29.8562 176.411 30.4622 175.434 30.8532C174.476 31.2246 173.381 31.4103 172.15 31.4103H165.171V10.9425ZM172.15 28.2141C173.401 28.2141 174.368 27.8329 175.053 27.0704C175.737 26.2885 176.079 25.1253 176.079 23.5809V18.7719C176.079 17.2275 175.737 16.0741 175.053 15.3117C174.368 14.5297 173.401 14.1387 172.15 14.1387H168.836V28.2141H172.15Z" fill="#2D2520"/>
</svg>
