<svg width="322" height="51" viewBox="0 0 322 51" fill="none" xmlns="http://www.w3.org/2000/svg">
<path d="M0.10791 49.8744V1.03328H28.6569V8.66034H8.85454V21.3954H25.9979V28.8126H8.85454V49.8744H0.10791Z" fill="#2D2520"/>
<path d="M37.0843 49.8744V42.9471H42.892V7.96061H37.0843V1.03328H57.4464V7.96061H51.6387V42.9471H57.4464V49.8744H37.0843Z" fill="#2D2520"/>
<path d="M76.7393 49.8744H67.9927V1.03328H88.2149C92.5065 1.03328 95.7486 2.33944 97.9411 4.95177C100.18 7.56409 101.3 11.2027 101.3 15.8676C101.3 19.5528 100.6 22.6083 99.2006 25.034C97.8012 27.4131 95.7486 29.0458 93.043 29.9321L101.93 49.8744H92.4832L84.4363 30.6319H76.7393V49.8744ZM87.3052 23.3547C88.798 23.3547 89.9642 22.9582 90.8039 22.1651C91.6902 21.3721 92.1333 20.0426 92.1333 18.1767V13.8383C92.1333 11.9724 91.6902 10.6429 90.8039 9.84988C89.9642 9.05685 88.798 8.66034 87.3052 8.66034H76.7393V23.3547H87.3052Z" fill="#2D2520"/>
<path d="M112.117 49.8744V1.03328H141.435V8.66034H120.863V21.3954H138.846V28.8126H120.863V42.2474H141.435V49.8744H112.117Z" fill="#2D2520"/>
<path d="M161.024 49.8744H152.277V1.03328H172.5C176.791 1.03328 180.033 2.33944 182.226 4.95177C184.465 7.56409 185.584 11.2027 185.584 15.8676C185.584 19.5528 184.885 22.6083 183.485 25.034C182.086 27.4131 180.033 29.0458 177.328 29.9321L186.214 49.8744H176.768L168.721 30.6319H161.024V49.8744ZM171.59 23.3547C173.083 23.3547 174.249 22.9582 175.089 22.1651C175.975 21.3721 176.418 20.0426 176.418 18.1767V13.8383C176.418 11.9724 175.975 10.6429 175.089 9.84988C174.249 9.05685 173.083 8.66034 171.59 8.66034H161.024V23.3547H171.59Z" fill="#2D2520"/>
<path d="M213.413 50.7141C210.474 50.7141 207.815 50.2476 205.436 49.3147C203.104 48.335 201.098 46.8423 199.418 44.8364C197.786 42.7838 196.503 40.1715 195.57 36.9994C194.684 33.7806 194.24 29.9321 194.24 25.4539C194.24 20.9756 194.684 17.1504 195.57 13.9783C196.503 10.7595 197.786 8.1472 199.418 6.14131C201.098 4.08877 203.104 2.59601 205.436 1.66304C207.815 0.683415 210.474 0.193604 213.413 0.193604C216.352 0.193604 218.987 0.683415 221.32 1.66304C223.699 2.59601 225.705 4.08877 227.338 6.14131C229.017 8.1472 230.3 10.7595 231.186 13.9783C232.119 17.1504 232.586 20.9756 232.586 25.4539C232.586 29.9321 232.119 33.7806 231.186 36.9994C230.3 40.1715 229.017 42.7838 227.338 44.8364C225.705 46.8423 223.699 48.335 221.32 49.3147C218.987 50.2476 216.352 50.7141 213.413 50.7141ZM213.413 43.0171C216.585 43.0171 219.034 42.0375 220.76 40.0782C222.486 38.0723 223.349 35.2268 223.349 31.5415V19.3662C223.349 15.681 222.486 12.8587 220.76 10.8995C219.034 8.89358 216.585 7.89063 213.413 7.89063C210.241 7.89063 207.792 8.89358 206.066 10.8995C204.34 12.8587 203.477 15.681 203.477 19.3662V31.5415C203.477 35.2268 204.34 38.0723 206.066 40.0782C207.792 42.0375 210.241 43.0171 213.413 43.0171Z" fill="#2D2520"/>
<path d="M268.976 49.8744L265.548 37.1394H249.804L246.375 49.8744H237.978L252.253 1.03328H263.309L277.583 49.8744H268.976ZM259.67 16.7072L258.131 8.94023H257.151L255.612 16.7072L251.903 30.0721H263.449L259.67 16.7072Z" fill="#2D2520"/>
<path d="M286.221 1.03328H302.875C305.813 1.03328 308.426 1.49977 310.712 2.43274C313.044 3.31906 315.003 4.76517 316.589 6.77106C318.222 8.73031 319.458 11.2493 320.298 14.3282C321.137 17.407 321.557 21.1155 321.557 25.4539C321.557 29.7922 321.137 33.5008 320.298 36.5796C319.458 39.6584 318.222 42.2007 316.589 44.2066C315.003 46.1659 313.044 47.612 310.712 48.545C308.426 49.4313 305.813 49.8744 302.875 49.8744H286.221V1.03328ZM302.875 42.2474C305.86 42.2474 308.169 41.3377 309.802 39.5184C311.435 37.6525 312.251 34.8769 312.251 31.1916V19.7161C312.251 16.0308 311.435 13.2786 309.802 11.4593C308.169 9.59331 305.86 8.66034 302.875 8.66034H294.968V42.2474H302.875Z" fill="#2D2520"/>
</svg>
