<svg width="552" height="163" viewBox="0 0 552 163" fill="none" xmlns="http://www.w3.org/2000/svg">
<path d="M22.747 3H448.153C460.817 3 472.97 7.98898 481.982 16.8863L537.289 71.4949C542.865 76.9998 542.865 86.0002 537.289 91.5051L481.982 146.114C472.97 155.011 460.817 160 448.153 160H22.747C11.841 160 3 151.159 3 140.253V22.747C3 11.841 11.841 3 22.747 3Z" fill="#2D2520" stroke="#483527" stroke-width="6"/>
<mask id="path-2-inside-1_1353_2732" fill="white">
<path fill-rule="evenodd" clip-rule="evenodd" d="M51.4829 117.981C57.7344 128.14 62.8138 127.359 62.8138 127.359C68.2839 126.968 69.0654 119.935 69.0654 119.935C69.0654 119.935 69.8468 114.465 72.1911 111.339C75.1919 107.338 80.3963 104.306 90.1643 100.399C100.48 95.753 105.848 86.5787 104.947 80.4935C104.607 78.2019 103.11 78.7079 101.03 79.411C98.9168 80.1256 96.201 81.0437 93.4854 79.4368C89.508 77.0832 96.8328 71.8164 96.8328 71.8164C96.8328 71.8164 103.058 67.1877 107.747 58.5918C114.389 46.413 112.826 35.93 112.826 35.93C112.826 35.93 112.428 30.4687 106.965 36.3207C101.799 41.5569 94.9201 44.7052 88.4144 46.6463C84.9398 47.572 82.7845 47.4709 82.5072 46.0502C82.4214 45.6108 82.6833 45.1372 82.9563 44.6435C83.2738 44.0694 83.6062 43.4683 83.4244 42.8624C83.1202 41.8481 82.1849 41.8482 79.5397 42.6118C78.8141 42.8213 77.1169 43.4302 76.325 43.7639C75.8898 43.9473 75.5833 44.0703 75.3205 44.1757C74.472 44.5161 74.0798 44.6735 71.2914 46.0879C64.7362 49.4128 61.2916 51.6043 58.6025 53.5076C47.7962 61.1562 42.1758 69.8825 40.9011 80.9146C40.6705 82.1783 40.5427 83.4666 40.5427 84.7701C40.5427 98.0586 46.5989 110.042 51.4829 117.981Z"/>
</mask>
<path fill-rule="evenodd" clip-rule="evenodd" d="M51.4829 117.981C57.7344 128.14 62.8138 127.359 62.8138 127.359C68.2839 126.968 69.0654 119.935 69.0654 119.935C69.0654 119.935 69.8468 114.465 72.1911 111.339C75.1919 107.338 80.3963 104.306 90.1643 100.399C100.48 95.753 105.848 86.5787 104.947 80.4935C104.607 78.2019 103.11 78.7079 101.03 79.411C98.9168 80.1256 96.201 81.0437 93.4854 79.4368C89.508 77.0832 96.8328 71.8164 96.8328 71.8164C96.8328 71.8164 103.058 67.1877 107.747 58.5918C114.389 46.413 112.826 35.93 112.826 35.93C112.826 35.93 112.428 30.4687 106.965 36.3207C101.799 41.5569 94.9201 44.7052 88.4144 46.6463C84.9398 47.572 82.7845 47.4709 82.5072 46.0502C82.4214 45.6108 82.6833 45.1372 82.9563 44.6435C83.2738 44.0694 83.6062 43.4683 83.4244 42.8624C83.1202 41.8481 82.1849 41.8482 79.5397 42.6118C78.8141 42.8213 77.1169 43.4302 76.325 43.7639C75.8898 43.9473 75.5833 44.0703 75.3205 44.1757C74.472 44.5161 74.0798 44.6735 71.2914 46.0879C64.7362 49.4128 61.2916 51.6043 58.6025 53.5076C47.7962 61.1562 42.1758 69.8825 40.9011 80.9146C40.6705 82.1783 40.5427 83.4666 40.5427 84.7701C40.5427 98.0586 46.5989 110.042 51.4829 117.981Z" fill="#FDF7EA"/>
<path d="M62.8138 127.359L62.3765 121.237L62.1274 121.254L61.8805 121.292L62.8138 127.359ZM51.4829 117.981L46.2551 121.197L46.2557 121.198L51.4829 117.981ZM69.0654 119.935L62.9893 119.067L62.9758 119.162L62.9652 119.257L69.0654 119.935ZM72.1911 111.339L67.2809 107.657L67.2809 107.657L72.1911 111.339ZM90.1643 100.399L92.4438 106.098L92.5654 106.049L92.6848 105.995L90.1643 100.399ZM104.947 80.4935L111.018 79.594L111.018 79.594L104.947 80.4935ZM101.03 79.411L99.0646 73.5966L99.0646 73.5966L101.03 79.411ZM93.4854 79.4368L96.6111 74.1546L96.6111 74.1546L93.4854 79.4368ZM96.8328 71.8164L100.416 76.7996L100.456 76.771L100.495 76.7418L96.8328 71.8164ZM107.747 58.5918L113.135 61.5309L113.135 61.5306L107.747 58.5918ZM112.826 35.93L106.705 36.3758L106.721 36.6064L106.755 36.835L112.826 35.93ZM106.965 36.3207L111.334 40.6316L111.394 40.5711L111.452 40.5091L106.965 36.3207ZM88.4144 46.6463L89.9945 52.5772L90.0823 52.5538L90.1693 52.5278L88.4144 46.6463ZM82.5072 46.0502L76.4832 47.226L76.4832 47.226L82.5072 46.0502ZM82.9563 44.6435L88.3276 47.6136L88.3276 47.6136L82.9563 44.6435ZM83.4244 42.8624L77.5455 44.6258L77.5456 44.6261L83.4244 42.8624ZM79.5397 42.6118L77.8373 36.7149L77.8373 36.7149L79.5397 42.6118ZM76.325 43.7639L73.9415 38.1079L73.9415 38.1079L76.325 43.7639ZM75.3205 44.1757L73.035 38.4794L73.035 38.4794L75.3205 44.1757ZM71.2914 46.0879L68.5149 40.614L68.5149 40.614L71.2914 46.0879ZM58.6025 53.5076L55.0566 48.4978L58.6025 53.5076ZM40.9011 80.9146L46.9391 82.0163L46.9752 81.8186L46.9983 81.6191L40.9011 80.9146ZM62.8138 127.359C61.8805 121.292 61.8869 121.291 61.8932 121.29C61.8952 121.29 61.9015 121.289 61.9057 121.289C61.914 121.287 61.9223 121.286 61.9305 121.285C61.947 121.283 61.9632 121.28 61.9792 121.278C62.0112 121.274 62.0423 121.27 62.0725 121.266C62.1329 121.259 62.1897 121.253 62.243 121.249C62.3498 121.24 62.4424 121.236 62.5214 121.235C62.6801 121.233 62.7808 121.245 62.8266 121.251C62.93 121.267 62.757 121.261 62.3406 121.043C61.5113 120.608 59.4204 119.169 56.7101 114.765L46.2557 121.198C49.7969 126.953 53.3715 130.202 56.6447 131.917C58.2797 132.773 59.7672 133.207 61.0183 133.393C61.6381 133.485 62.1844 133.515 62.6453 133.51C62.8754 133.508 63.0832 133.497 63.2674 133.481C63.3595 133.474 63.4457 133.465 63.5257 133.455C63.5657 133.45 63.6041 133.446 63.641 133.44C63.6595 133.438 63.6776 133.435 63.6952 133.433C63.7041 133.432 63.7128 133.43 63.7215 133.429C63.7258 133.428 63.7322 133.427 63.7344 133.427C63.7407 133.426 63.7471 133.425 62.8138 127.359ZM69.0654 119.935C62.9652 119.257 62.9654 119.255 62.9657 119.253C62.9658 119.252 62.966 119.25 62.9662 119.248C62.9665 119.246 62.9668 119.243 62.9671 119.24C62.9677 119.235 62.9683 119.23 62.9688 119.225C62.9699 119.216 62.9708 119.209 62.9715 119.203C62.9731 119.19 62.974 119.184 62.9742 119.182C62.9745 119.18 62.9721 119.198 62.9662 119.233C62.9543 119.305 62.9296 119.44 62.8876 119.616C62.7982 119.991 62.6594 120.429 62.4716 120.815C62.3816 121 62.2973 121.138 62.2281 121.233C62.1596 121.328 62.1224 121.358 62.1291 121.352C62.1412 121.342 62.1897 121.305 62.2687 121.272C62.3519 121.237 62.3999 121.235 62.3765 121.237L63.2511 133.481C69.0973 133.063 72.1622 128.956 73.5101 126.185C74.2014 124.764 74.5999 123.42 74.828 122.464C74.9447 121.975 75.0238 121.557 75.0759 121.243C75.1021 121.085 75.1219 120.952 75.1363 120.846C75.1436 120.793 75.1495 120.747 75.1543 120.708C75.1568 120.688 75.1589 120.671 75.1607 120.655C75.1617 120.647 75.1625 120.639 75.1633 120.632C75.1637 120.629 75.1641 120.626 75.1645 120.622C75.1647 120.621 75.1649 120.618 75.165 120.617C75.1653 120.615 75.1655 120.613 69.0654 119.935ZM67.2809 107.657C65.4086 110.153 64.3822 113.198 63.8353 115.167C63.5395 116.232 63.3337 117.172 63.2006 117.853C63.1336 118.196 63.0837 118.478 63.0493 118.685C63.0321 118.788 63.0186 118.873 63.0087 118.937C63.0037 118.97 62.9997 118.997 62.9964 119.018C62.9948 119.029 62.9934 119.039 62.9923 119.047C62.9917 119.051 62.9911 119.055 62.9906 119.058C62.9904 119.06 62.9902 119.061 62.9899 119.063C62.9898 119.063 62.9897 119.065 62.9896 119.065C62.9895 119.066 62.9893 119.067 69.0654 119.935C75.1414 120.803 75.1412 120.804 75.1411 120.805C75.1411 120.805 75.1409 120.806 75.1408 120.807C75.1407 120.808 75.1405 120.809 75.1404 120.81C75.1401 120.812 75.1398 120.814 75.1396 120.815C75.1392 120.818 75.1389 120.82 75.1389 120.82C75.1388 120.821 75.1394 120.817 75.1407 120.808C75.1434 120.791 75.149 120.755 75.1577 120.703C75.1752 120.598 75.2047 120.429 75.2476 120.21C75.3342 119.767 75.4704 119.145 75.6629 118.452C76.0929 116.904 76.6293 115.651 77.1013 115.022L67.2809 107.657ZM87.8848 94.7002C78.1233 98.6048 71.4113 102.149 67.2809 107.657L77.1013 115.022C78.9724 112.527 82.6692 110.008 92.4438 106.098L87.8848 94.7002ZM98.8751 81.393C99.023 82.3918 98.6861 84.6483 96.7168 87.4902C94.8412 90.1969 91.798 92.9317 87.6438 94.8027L92.6848 105.995C98.8459 103.22 103.644 99.045 106.807 94.4818C109.875 90.0537 111.772 84.6805 111.018 79.594L98.8751 81.393ZM102.996 85.2255C103.579 85.0283 103.817 84.9519 103.973 84.9126C104.171 84.8626 103.73 85.0111 102.991 84.9324C102.017 84.8287 100.737 84.3463 99.7749 83.1953C99.3679 82.7085 99.1454 82.248 99.0279 81.9384C98.9131 81.6361 98.8809 81.4322 98.8751 81.393L111.018 79.594C110.848 78.4493 110.426 76.7972 109.193 75.3221C107.79 73.6435 105.942 72.9018 104.291 72.726C102.875 72.5752 101.649 72.8389 100.971 73.01C100.251 73.1916 99.5214 73.4422 99.0646 73.5966L102.996 85.2255ZM90.3598 84.719C95.7992 87.9377 101.205 85.8311 102.996 85.2255L99.0646 73.5966C98.5138 73.7829 98.1193 73.9144 97.7325 74.0195C97.3611 74.1204 97.1036 74.1658 96.9214 74.1826C96.7492 74.1984 96.6786 74.1852 96.6717 74.1839C96.6671 74.183 96.6661 74.1826 96.6641 74.1818C96.6623 74.1811 96.6452 74.1748 96.6111 74.1546L90.3598 84.719ZM96.8328 71.8164C93.2497 66.8331 93.2485 66.834 93.2473 66.8348C93.2469 66.8352 93.2457 66.836 93.2448 66.8367C93.243 66.8379 93.2411 66.8393 93.2392 66.8407C93.2352 66.8436 93.2307 66.8468 93.2258 66.8504C93.2161 66.8575 93.2044 66.8659 93.1911 66.8757C93.1644 66.8952 93.1306 66.92 93.0904 66.9499C93.0101 67.0096 92.9034 67.0899 92.7754 67.1887C92.5206 67.3854 92.1741 67.6609 91.7768 67.9983C91.014 68.6463 89.9261 69.6389 88.9404 70.8293C88.0906 71.8554 86.6535 73.7991 86.2647 76.3163C86.0459 77.7329 86.1467 79.4371 86.9723 81.1274C87.7889 82.7992 89.0691 83.9553 90.3598 84.719L96.6111 74.1546C96.9074 74.3299 97.5464 74.8065 98.0023 75.7399C98.4672 76.6917 98.4877 77.5983 98.3963 78.19C98.3535 78.4666 98.2889 78.668 98.2454 78.784C98.2015 78.9007 98.167 78.9632 98.1637 78.9691C98.1596 78.9763 98.1739 78.9501 98.2157 78.8906C98.2569 78.832 98.3156 78.7543 98.3948 78.6587C98.7431 78.2382 99.2378 77.767 99.7241 77.3539C99.9515 77.1608 100.146 77.0064 100.276 76.9058C100.341 76.8561 100.388 76.8209 100.413 76.8023C100.425 76.793 100.432 76.788 100.433 76.7874C100.433 76.7872 100.432 76.788 100.429 76.79C100.428 76.791 100.426 76.7923 100.424 76.7939C100.423 76.7947 100.422 76.7956 100.42 76.7965C100.42 76.797 100.419 76.7978 100.418 76.798C100.417 76.7988 100.416 76.7996 96.8328 71.8164ZM102.358 55.6528C100.333 59.3666 97.9635 62.2399 96.1039 64.177C95.1787 65.1407 94.3939 65.8579 93.8632 66.317C93.5984 66.5461 93.3984 66.7096 93.2777 66.806C93.2174 66.8542 93.1771 66.8855 93.1586 66.8997C93.1494 66.9069 93.1456 66.9097 93.1475 66.9083C93.1485 66.9075 93.1509 66.9057 93.1547 66.9028C93.1566 66.9014 93.1589 66.8997 93.1616 66.8977C93.1629 66.8967 93.1643 66.8957 93.1658 66.8945C93.1666 66.894 93.1678 66.8931 93.1681 66.8928C93.1694 66.8919 93.1706 66.891 96.8328 71.8164C100.495 76.7418 100.496 76.7408 100.498 76.7398C100.498 76.7395 100.499 76.7385 100.5 76.7378C100.502 76.7364 100.504 76.7349 100.506 76.7333C100.511 76.7302 100.515 76.7268 100.52 76.7231C100.53 76.7157 100.541 76.7072 100.554 76.6974C100.58 76.6779 100.612 76.6537 100.649 76.6248C100.724 76.5671 100.822 76.4906 100.941 76.3954C101.179 76.2051 101.502 75.9398 101.894 75.6007C102.677 74.9232 103.742 73.9461 104.959 72.6781C107.384 70.1519 110.472 66.4129 113.135 61.5309L102.358 55.6528ZM112.826 35.93C106.755 36.835 106.755 36.8327 106.755 36.8305C106.755 36.8298 106.754 36.8276 106.754 36.8262C106.754 36.8233 106.753 36.8207 106.753 36.8182C106.752 36.8132 106.752 36.8088 106.751 36.805C106.75 36.7974 106.749 36.7922 106.749 36.7894C106.748 36.7839 106.749 36.7879 106.75 36.8012C106.754 36.8278 106.761 36.8914 106.771 36.99C106.79 37.1873 106.816 37.5234 106.833 37.9817C106.866 38.9 106.859 40.2977 106.674 42.0463C106.303 45.5443 105.223 50.4003 102.358 55.653L113.135 61.5306C116.913 54.6045 118.373 48.1297 118.881 43.3414C119.135 40.947 119.152 38.9627 119.1 37.5348C119.074 36.8201 119.031 36.242 118.99 35.8185C118.97 35.6066 118.95 35.4331 118.934 35.3002C118.925 35.2338 118.918 35.1774 118.912 35.1315C118.909 35.1085 118.906 35.0881 118.903 35.0703C118.902 35.0614 118.901 35.0532 118.9 35.0457C118.899 35.0419 118.899 35.0383 118.898 35.0348C118.898 35.0331 118.898 35.0306 118.897 35.0298C118.897 35.0273 118.897 35.025 112.826 35.93ZM111.452 40.5091C112.587 39.2936 112.875 39.3321 112.396 39.5168C112.08 39.6389 111.407 39.8278 110.501 39.7207C109.549 39.6084 108.714 39.2129 108.081 38.6998C107.498 38.2282 107.183 37.7397 107.033 37.4668C106.88 37.188 106.812 36.9761 106.786 36.8865C106.757 36.7862 106.743 36.7099 106.734 36.6542C106.729 36.6221 106.724 36.5854 106.719 36.5418C106.717 36.5197 106.715 36.4952 106.712 36.4679C106.711 36.4542 106.71 36.4397 106.708 36.4244C106.708 36.4167 106.707 36.4088 106.706 36.4008C106.706 36.3967 106.706 36.3926 106.706 36.3884C106.705 36.3864 106.705 36.3832 106.705 36.3822C106.705 36.379 106.705 36.3758 112.826 35.93C118.948 35.4842 118.947 35.481 118.947 35.4777C118.947 35.4766 118.947 35.4733 118.947 35.4711C118.946 35.4666 118.946 35.462 118.946 35.4573C118.945 35.4479 118.944 35.438 118.943 35.4278C118.942 35.4072 118.94 35.385 118.938 35.3612C118.933 35.3135 118.928 35.259 118.921 35.1984C118.908 35.0777 118.889 34.9294 118.862 34.7593C118.811 34.4279 118.723 33.9706 118.571 33.4498C118.328 32.6159 117.655 30.6586 115.808 29.1619C113.435 27.239 110.478 27.0988 107.976 28.0649C105.886 28.8715 104.076 30.4218 102.479 32.1324L111.452 40.5091ZM90.1693 52.5278C97.1837 50.4349 105.157 46.8923 111.334 40.6316L102.596 32.0099C98.4407 36.2215 92.6565 38.9755 86.6595 40.7648L90.1693 52.5278ZM86.8343 40.7155C86.1327 40.9024 85.594 41.0111 85.2033 41.0665C84.789 41.1252 84.6799 41.1037 84.7906 41.1133C84.8536 41.1187 85.569 41.1762 86.438 41.7493C86.9052 42.0575 87.3882 42.4983 87.7882 43.092C88.1891 43.6871 88.4207 44.3081 88.5312 44.8744L76.4832 47.226C76.8728 49.2222 78.028 50.9074 79.6792 51.9965C81.1388 52.9592 82.6622 53.2504 83.733 53.343C85.8254 53.524 88.0675 53.0905 89.9945 52.5772L86.8343 40.7155ZM88.5312 44.8744C88.7966 46.2341 88.4473 47.2498 88.3382 47.5382C88.3041 47.6283 88.2746 47.6958 88.2562 47.7362C88.2377 47.7766 88.2259 47.7997 88.2257 47.8001C88.2256 47.8003 88.2321 47.7876 88.2502 47.7542C88.2695 47.7187 88.2913 47.6791 88.3276 47.6136L77.5851 41.6734C77.5009 41.8258 77.1311 42.4696 76.8563 43.1962C76.5695 43.9548 76.132 45.427 76.4832 47.226L88.5312 44.8744ZM88.3276 47.6136C88.4286 47.431 88.8861 46.6411 89.1956 45.7199C89.5408 44.6926 89.8803 43.0219 89.3033 41.0987L77.5456 44.6261C77.1504 43.3087 77.4145 42.2416 77.5596 41.8098C77.6303 41.5994 77.6942 41.4734 77.6946 41.4727C77.697 41.4679 77.6917 41.4787 77.6723 41.5146C77.6514 41.5534 77.6274 41.5969 77.5851 41.6734L88.3276 47.6136ZM89.3034 41.099C88.9774 40.0122 88.2769 38.544 86.7772 37.4031C85.3116 36.2881 83.7512 35.9967 82.6784 35.9409C80.8892 35.848 79.0263 36.3717 77.8373 36.7149L81.2421 48.5087C81.8354 48.3375 82.1957 48.2496 82.4069 48.208C82.659 48.1583 82.4685 48.222 82.0415 48.1998C81.5712 48.1754 80.467 48.0264 79.345 47.1728C78.1888 46.2933 77.7194 45.2054 77.5455 44.6258L89.3034 41.099ZM77.8373 36.7149C76.8476 37.0007 74.922 37.6947 73.9415 38.1079L78.7085 49.4199C79.3119 49.1656 80.7806 48.642 81.2422 48.5087L77.8373 36.7149ZM73.9415 38.1079C73.557 38.2699 73.2905 38.3769 73.035 38.4794L77.6059 49.8721C77.876 49.7637 78.2227 49.6246 78.7085 49.4199L73.9415 38.1079ZM73.035 38.4794C71.9393 38.919 71.3612 39.1703 68.5149 40.614L74.0679 51.5617C75.4588 50.8562 76.1784 50.5018 76.6354 50.2879C77.0312 50.1027 77.2157 50.0286 77.6059 49.8721L73.035 38.4794ZM68.5149 40.614C61.7333 44.0539 58.0254 46.3965 55.0566 48.4978L62.1484 58.5174C64.5579 56.812 67.7392 54.7718 74.0679 51.5617L68.5149 40.614ZM55.0566 48.4978C43.1183 56.9476 36.3165 67.12 34.804 80.2101L46.9983 81.6191C48.0352 72.6449 52.4741 65.3648 62.1484 58.5174L55.0566 48.4978ZM46.6804 84.7701C46.6804 83.8683 46.7689 82.9496 46.9391 82.0163L34.8631 79.8129C34.5722 81.4069 34.405 83.065 34.405 84.7701H46.6804ZM56.7107 114.766C51.9924 107.096 46.6804 96.3157 46.6804 84.7701H34.405C34.405 99.8014 41.2054 112.988 46.2551 121.197L56.7107 114.766Z" fill="#FDF7EA" mask="url(#path-2-inside-1_1353_2732)"/>
<path d="M136.315 104.874V56.0333H164.864V63.6603H145.062V76.3954H162.205V83.8126H145.062V104.874H136.315Z" fill="#FDF7EA"/>
<path d="M173.291 104.874V97.9471H179.099V62.9606H173.291V56.0333H193.653V62.9606H187.846V97.9471H193.653V104.874H173.291Z" fill="#FDF7EA"/>
<path d="M212.946 104.874H204.2V56.0333H224.422C228.714 56.0333 231.956 57.3394 234.148 59.9518C236.387 62.5641 237.507 66.2027 237.507 70.8676C237.507 74.5528 236.807 77.6083 235.408 80.034C234.008 82.4131 231.956 84.0458 229.25 84.9321L238.137 104.874H228.69L220.643 85.6319H212.946V104.874ZM223.512 78.3547C225.005 78.3547 226.171 77.9582 227.011 77.1651C227.897 76.3721 228.34 75.0426 228.34 73.1767V68.8383C228.34 66.9724 227.897 65.6429 227.011 64.8499C226.171 64.0568 225.005 63.6603 223.512 63.6603H212.946V78.3547H223.512Z" fill="#FDF7EA"/>
<path d="M248.324 104.874V56.0333H277.642V63.6603H257.07V76.3954H275.053V83.8126H257.07V97.2474H277.642V104.874H248.324Z" fill="#FDF7EA"/>
<path d="M297.231 104.874H288.484V56.0333H308.707C312.998 56.0333 316.24 57.3394 318.433 59.9518C320.672 62.5641 321.792 66.2027 321.792 70.8676C321.792 74.5528 321.092 77.6083 319.692 80.034C318.293 82.4131 316.24 84.0458 313.535 84.9321L322.421 104.874H312.975L304.928 85.6319H297.231V104.874ZM307.797 78.3547C309.29 78.3547 310.456 77.9582 311.296 77.1651C312.182 76.3721 312.625 75.0426 312.625 73.1767V68.8383C312.625 66.9724 312.182 65.6429 311.296 64.8499C310.456 64.0568 309.29 63.6603 307.797 63.6603H297.231V78.3547H307.797Z" fill="#FDF7EA"/>
<path d="M349.62 105.714C346.681 105.714 344.022 105.248 341.643 104.315C339.311 103.335 337.305 101.842 335.625 99.8364C333.993 97.7838 332.71 95.1715 331.777 91.9994C330.891 88.7806 330.447 84.9321 330.447 80.4539C330.447 75.9756 330.891 72.1504 331.777 68.9783C332.71 65.7595 333.993 63.1472 335.625 61.1413C337.305 59.0888 339.311 57.596 341.643 56.663C344.022 55.6834 346.681 55.1936 349.62 55.1936C352.559 55.1936 355.195 55.6834 357.527 56.663C359.906 57.596 361.912 59.0888 363.545 61.1413C365.224 63.1472 366.507 65.7595 367.393 68.9783C368.326 72.1504 368.793 75.9756 368.793 80.4539C368.793 84.9321 368.326 88.7806 367.393 91.9994C366.507 95.1715 365.224 97.7838 363.545 99.8364C361.912 101.842 359.906 103.335 357.527 104.315C355.195 105.248 352.559 105.714 349.62 105.714ZM349.62 98.0171C352.792 98.0171 355.241 97.0375 356.967 95.0782C358.693 93.0723 359.556 90.2268 359.556 86.5415V74.3662C359.556 70.681 358.693 67.8587 356.967 65.8995C355.241 63.8936 352.792 62.8906 349.62 62.8906C346.448 62.8906 343.999 63.8936 342.273 65.8995C340.547 67.8587 339.684 70.681 339.684 74.3662V86.5415C339.684 90.2268 340.547 93.0723 342.273 95.0782C343.999 97.0375 346.448 98.0171 349.62 98.0171Z" fill="#FDF7EA"/>
<path d="M405.183 104.874L401.755 92.1394H386.011L382.582 104.874H374.185L388.46 56.0333H399.516L413.79 104.874H405.183ZM395.877 71.7072L394.338 63.9402H393.358L391.819 71.7072L388.11 85.0721H399.656L395.877 71.7072Z" fill="#FDF7EA"/>
<path d="M422.428 56.0333H439.082C442.02 56.0333 444.633 56.4998 446.919 57.4327C449.251 58.3191 451.21 59.7652 452.796 61.7711C454.429 63.7303 455.665 66.2493 456.505 69.3282C457.345 72.407 457.764 76.1155 457.764 80.4539C457.764 84.7922 457.345 88.5008 456.505 91.5796C455.665 94.6584 454.429 97.2007 452.796 99.2066C451.21 101.166 449.251 102.612 446.919 103.545C444.633 104.431 442.02 104.874 439.082 104.874H422.428V56.0333ZM439.082 97.2474C442.067 97.2474 444.376 96.3377 446.009 94.5184C447.642 92.6525 448.458 89.8769 448.458 86.1916V74.7161C448.458 71.0308 447.642 68.2786 446.009 66.4593C444.376 64.5933 442.067 63.6603 439.082 63.6603H431.175V97.2474H439.082Z" fill="#FDF7EA"/>
</svg>
