<svg width="552" height="163" viewBox="0 0 552 163" fill="none" xmlns="http://www.w3.org/2000/svg">
<path d="M22.747 3H448.153C460.817 3 472.97 7.98898 481.982 16.8863L537.289 71.4949C542.865 76.9998 542.865 86.0002 537.289 91.5051L481.982 146.114C472.97 155.011 460.817 160 448.153 160H22.747C11.841 160 3 151.159 3 140.253V22.747C3 11.841 11.841 3 22.747 3Z" fill="#FDF7EA" stroke="#F1E7D2" stroke-width="6"/>
<mask id="path-2-inside-1_1353_2726" fill="white">
<path fill-rule="evenodd" clip-rule="evenodd" d="M51.4832 117.981C57.7347 128.14 62.8141 127.359 62.8141 127.359C68.2842 126.968 69.0656 119.935 69.0656 119.935C69.0656 119.935 69.847 114.465 72.1914 111.339C75.1921 107.338 80.3965 104.306 90.1645 100.399C100.48 95.753 105.848 86.5787 104.947 80.4935C104.607 78.2019 103.111 78.7079 101.031 79.411C98.917 80.1256 96.2013 81.0437 93.4857 79.4368C89.5082 77.0832 96.8331 71.8164 96.8331 71.8164C96.8331 71.8164 103.058 67.1877 107.747 58.5918C114.389 46.413 112.826 35.93 112.826 35.93C112.826 35.93 112.429 30.4687 106.966 36.3207C101.8 41.5564 94.9217 44.7045 88.4167 46.6457C84.9408 47.5721 82.7845 47.4712 82.5072 46.0502C82.4214 45.6108 82.6833 45.1372 82.9563 44.6435C83.2738 44.0694 83.6062 43.4683 83.4244 42.8624C83.1202 41.8481 82.1849 41.8482 79.5397 42.6118C78.8141 42.8213 77.1169 43.4302 76.325 43.7639C75.8898 43.9473 75.5833 44.0703 75.3205 44.1757C74.472 44.5161 74.0798 44.6735 71.2914 46.0879C64.7362 49.4128 61.2916 51.6043 58.6025 53.5076C47.795 61.1571 42.1746 69.8844 40.9007 80.9182C40.6705 82.1807 40.543 83.4679 40.543 84.7701C40.543 98.0586 46.5991 110.042 51.4832 117.981Z"/>
</mask>
<path fill-rule="evenodd" clip-rule="evenodd" d="M51.4832 117.981C57.7347 128.14 62.8141 127.359 62.8141 127.359C68.2842 126.968 69.0656 119.935 69.0656 119.935C69.0656 119.935 69.847 114.465 72.1914 111.339C75.1921 107.338 80.3965 104.306 90.1645 100.399C100.48 95.753 105.848 86.5787 104.947 80.4935C104.607 78.2019 103.111 78.7079 101.031 79.411C98.917 80.1256 96.2013 81.0437 93.4857 79.4368C89.5082 77.0832 96.8331 71.8164 96.8331 71.8164C96.8331 71.8164 103.058 67.1877 107.747 58.5918C114.389 46.413 112.826 35.93 112.826 35.93C112.826 35.93 112.429 30.4687 106.966 36.3207C101.8 41.5564 94.9217 44.7045 88.4167 46.6457C84.9408 47.5721 82.7845 47.4712 82.5072 46.0502C82.4214 45.6108 82.6833 45.1372 82.9563 44.6435C83.2738 44.0694 83.6062 43.4683 83.4244 42.8624C83.1202 41.8481 82.1849 41.8482 79.5397 42.6118C78.8141 42.8213 77.1169 43.4302 76.325 43.7639C75.8898 43.9473 75.5833 44.0703 75.3205 44.1757C74.472 44.5161 74.0798 44.6735 71.2914 46.0879C64.7362 49.4128 61.2916 51.6043 58.6025 53.5076C47.795 61.1571 42.1746 69.8844 40.9007 80.9182C40.6705 82.1807 40.543 83.4679 40.543 84.7701C40.543 98.0586 46.5991 110.042 51.4832 117.981Z" fill="#2D2520"/>
<path d="M62.8141 127.359L62.3768 121.237L62.1276 121.254L61.8808 121.292L62.8141 127.359ZM51.4832 117.981L46.2554 121.197L46.2559 121.198L51.4832 117.981ZM69.0656 119.935L62.9896 119.067L62.976 119.162L62.9654 119.257L69.0656 119.935ZM72.1914 111.339L67.2812 107.657L67.2812 107.657L72.1914 111.339ZM90.1645 100.399L92.444 106.098L92.5656 106.049L92.6851 105.995L90.1645 100.399ZM104.947 80.4935L111.018 79.594L111.018 79.594L104.947 80.4935ZM101.031 79.411L99.0649 73.5966L99.0649 73.5966L101.031 79.411ZM93.4857 79.4368L96.6113 74.1546L96.6113 74.1546L93.4857 79.4368ZM96.8331 71.8164L100.416 76.7996L100.456 76.771L100.495 76.7418L96.8331 71.8164ZM107.747 58.5918L113.135 61.5309L113.135 61.5306L107.747 58.5918ZM112.826 35.93L106.705 36.3758L106.722 36.6064L106.756 36.835L112.826 35.93ZM106.966 36.3207L111.335 40.6316L111.394 40.5711L111.452 40.5091L106.966 36.3207ZM88.4167 46.6457L89.9973 52.5764L90.0849 52.5531L90.1717 52.5271L88.4167 46.6457ZM82.5072 46.0502L76.4832 47.226L76.4832 47.226L82.5072 46.0502ZM82.9563 44.6435L88.3276 47.6136L88.3276 47.6136L82.9563 44.6435ZM83.4244 42.8624L77.5455 44.6258L77.5456 44.6261L83.4244 42.8624ZM79.5397 42.6118L77.8373 36.7149L77.8373 36.7149L79.5397 42.6118ZM76.325 43.7639L73.9415 38.1079L73.9415 38.1079L76.325 43.7639ZM75.3205 44.1757L73.035 38.4794L73.035 38.4794L75.3205 44.1757ZM71.2914 46.0879L68.5149 40.614L68.5149 40.614L71.2914 46.0879ZM58.6025 53.5076L55.0566 48.4978L58.6025 53.5076ZM40.9007 80.9182L46.9389 82.019L46.9749 81.8215L46.9979 81.6222L40.9007 80.9182ZM62.8141 127.359C61.8808 121.292 61.8871 121.291 61.8934 121.29C61.8955 121.29 61.9018 121.289 61.906 121.289C61.9143 121.287 61.9226 121.286 61.9308 121.285C61.9472 121.283 61.9634 121.28 61.9794 121.278C62.0114 121.274 62.0425 121.27 62.0727 121.266C62.1331 121.259 62.1899 121.253 62.2433 121.249C62.35 121.24 62.4426 121.236 62.5216 121.235C62.6804 121.233 62.781 121.245 62.8269 121.251C62.9303 121.267 62.7572 121.261 62.3409 121.043C61.5115 120.608 59.4207 119.169 56.7104 114.765L46.2559 121.198C49.7972 126.953 53.3718 130.202 56.645 131.917C58.28 132.773 59.7674 133.207 61.0186 133.393C61.6383 133.485 62.1846 133.515 62.6456 133.51C62.8757 133.508 63.0835 133.497 63.2677 133.481C63.3598 133.474 63.4459 133.465 63.5259 133.455C63.5659 133.45 63.6044 133.446 63.6413 133.44C63.6597 133.438 63.6778 133.435 63.6955 133.433C63.7043 133.432 63.7131 133.43 63.7217 133.429C63.726 133.428 63.7324 133.427 63.7346 133.427C63.741 133.426 63.7473 133.425 62.8141 127.359ZM69.0656 119.935C62.9654 119.257 62.9657 119.255 62.9659 119.253C62.966 119.252 62.9662 119.25 62.9664 119.248C62.9667 119.246 62.967 119.243 62.9673 119.24C62.9679 119.235 62.9685 119.23 62.969 119.225C62.9701 119.216 62.971 119.209 62.9718 119.203C62.9733 119.19 62.9742 119.184 62.9744 119.182C62.9748 119.18 62.9724 119.198 62.9665 119.233C62.9545 119.305 62.9298 119.44 62.8878 119.616C62.7984 119.991 62.6597 120.429 62.4719 120.815C62.3819 121 62.2976 121.138 62.2283 121.233C62.1598 121.328 62.1226 121.358 62.1294 121.352C62.1415 121.342 62.19 121.305 62.2689 121.272C62.3521 121.237 62.4002 121.235 62.3768 121.237L63.2514 133.481C69.0976 133.063 72.1625 128.956 73.5104 126.185C74.2017 124.764 74.6002 123.42 74.8282 122.464C74.945 121.975 75.024 121.557 75.0762 121.243C75.1024 121.085 75.1221 120.952 75.1366 120.846C75.1438 120.793 75.1498 120.747 75.1546 120.708C75.157 120.688 75.1591 120.671 75.161 120.655C75.1619 120.647 75.1628 120.639 75.1636 120.632C75.164 120.629 75.1643 120.626 75.1647 120.622C75.1649 120.621 75.1652 120.618 75.1653 120.617C75.1655 120.615 75.1658 120.613 69.0656 119.935ZM67.2812 107.657C65.4088 110.153 64.3824 113.198 63.8356 115.167C63.5397 116.232 63.334 117.172 63.2008 117.853C63.1338 118.196 63.084 118.478 63.0496 118.685C63.0323 118.788 63.0188 118.873 63.0089 118.937C63.004 118.97 62.9999 118.997 62.9967 119.018C62.9951 119.029 62.9937 119.039 62.9925 119.047C62.9919 119.051 62.9914 119.055 62.9909 119.058C62.9906 119.06 62.9904 119.061 62.9902 119.063C62.9901 119.063 62.9899 119.065 62.9899 119.065C62.9897 119.066 62.9896 119.067 69.0656 119.935C75.1416 120.803 75.1415 120.804 75.1413 120.805C75.1413 120.805 75.1412 120.806 75.1411 120.807C75.1409 120.808 75.1407 120.809 75.1406 120.81C75.1403 120.812 75.1401 120.814 75.1398 120.815C75.1394 120.818 75.1392 120.82 75.1391 120.82C75.139 120.821 75.1396 120.817 75.141 120.808C75.1436 120.791 75.1493 120.755 75.158 120.703C75.1754 120.598 75.205 120.429 75.2478 120.21C75.3345 119.767 75.4706 119.145 75.6632 118.452C76.0931 116.904 76.6296 115.651 77.1015 115.022L67.2812 107.657ZM87.885 94.7002C78.1236 98.6048 71.4115 102.149 67.2812 107.657L77.1015 115.022C78.9727 112.527 82.6694 110.008 92.444 106.098L87.885 94.7002ZM98.8753 81.393C99.0233 82.3918 98.6863 84.6483 96.7171 87.4902C94.8415 90.1969 91.7982 92.9317 87.644 94.8027L92.6851 105.995C98.8461 103.22 103.645 99.045 106.807 94.4818C109.875 90.0537 111.772 84.6805 111.018 79.594L98.8753 81.393ZM102.996 85.2255C103.579 85.0283 103.817 84.9519 103.973 84.9126C104.172 84.8626 103.731 85.0111 102.991 84.9324C102.017 84.8287 100.737 84.3463 99.7751 83.1953C99.3682 82.7085 99.1457 82.248 99.0281 81.9384C98.9134 81.6361 98.8811 81.4322 98.8753 81.393L111.018 79.594C110.849 78.4493 110.426 76.7972 109.193 75.3221C107.79 73.6435 105.942 72.9018 104.291 72.726C102.875 72.5752 101.649 72.8389 100.971 73.01C100.251 73.1916 99.5217 73.4422 99.0649 73.5966L102.996 85.2255ZM90.36 84.719C95.7995 87.9377 101.205 85.8311 102.996 85.2255L99.0649 73.5966C98.514 73.7829 98.1195 73.9144 97.7327 74.0195C97.3614 74.1204 97.1038 74.1658 96.9217 74.1826C96.7494 74.1984 96.6789 74.1852 96.6719 74.1839C96.6674 74.183 96.6664 74.1826 96.6644 74.1818C96.6625 74.1811 96.6455 74.1748 96.6113 74.1546L90.36 84.719ZM96.8331 71.8164C93.2499 66.8331 93.2488 66.834 93.2476 66.8348C93.2471 66.8352 93.2459 66.836 93.245 66.8367C93.2433 66.8379 93.2414 66.8393 93.2394 66.8407C93.2354 66.8436 93.231 66.8468 93.2261 66.8504C93.2163 66.8575 93.2047 66.8659 93.1913 66.8757C93.1646 66.8952 93.1308 66.92 93.0906 66.9499C93.0103 67.0096 92.9037 67.0899 92.7756 67.1887C92.5209 67.3854 92.1743 67.6609 91.7771 67.9983C91.0143 68.6463 89.9264 69.6389 88.9406 70.8293C88.0909 71.8554 86.6537 73.7991 86.2649 76.3163C86.0461 77.7329 86.1469 79.4371 86.9725 81.1274C87.7892 82.7992 89.0694 83.9553 90.36 84.719L96.6113 74.1546C96.9076 74.3299 97.5466 74.8065 98.0025 75.7399C98.4674 76.6917 98.4879 77.5983 98.3965 78.19C98.3538 78.4666 98.2892 78.668 98.2456 78.784C98.2018 78.9007 98.1672 78.9632 98.1639 78.9691C98.1599 78.9763 98.1741 78.9501 98.216 78.8906C98.2572 78.832 98.3159 78.7543 98.395 78.6587C98.7433 78.2382 99.2381 77.767 99.7244 77.3539C99.9517 77.1608 100.146 77.0064 100.277 76.9058C100.341 76.8561 100.388 76.8209 100.413 76.8023C100.425 76.793 100.432 76.788 100.433 76.7874C100.433 76.7872 100.432 76.788 100.429 76.79C100.428 76.791 100.426 76.7923 100.424 76.7939C100.423 76.7947 100.422 76.7956 100.42 76.7965C100.42 76.797 100.419 76.7978 100.418 76.798C100.417 76.7988 100.416 76.7996 96.8331 71.8164ZM102.359 55.6528C100.333 59.3666 97.9638 62.2399 96.1041 64.177C95.179 65.1407 94.3941 65.8579 93.8635 66.317C93.5986 66.5461 93.3986 66.7096 93.278 66.806C93.2177 66.8542 93.1774 66.8855 93.1589 66.8997C93.1496 66.9069 93.1458 66.9097 93.1478 66.9083C93.1487 66.9075 93.1511 66.9057 93.1549 66.9028C93.1569 66.9014 93.1592 66.8997 93.1618 66.8977C93.1631 66.8967 93.1645 66.8957 93.1661 66.8945C93.1668 66.894 93.168 66.8931 93.1684 66.8928C93.1696 66.8919 93.1709 66.891 96.8331 71.8164C100.495 76.7418 100.497 76.7408 100.498 76.7398C100.498 76.7395 100.5 76.7385 100.501 76.7378C100.503 76.7364 100.505 76.7349 100.507 76.7333C100.511 76.7302 100.515 76.7268 100.52 76.7231C100.53 76.7157 100.542 76.7072 100.554 76.6974C100.58 76.6779 100.612 76.6537 100.649 76.6248C100.724 76.5671 100.822 76.4906 100.942 76.3954C101.18 76.2051 101.503 75.9398 101.895 75.6007C102.678 74.9232 103.742 73.9461 104.959 72.6781C107.385 70.1519 110.472 66.4129 113.135 61.5309L102.359 55.6528ZM112.826 35.93C106.756 36.835 106.755 36.8327 106.755 36.8305C106.755 36.8298 106.755 36.8276 106.754 36.8262C106.754 36.8233 106.754 36.8207 106.753 36.8182C106.753 36.8132 106.752 36.8088 106.751 36.805C106.75 36.7974 106.75 36.7922 106.749 36.7894C106.748 36.7839 106.749 36.7879 106.751 36.8012C106.754 36.8278 106.761 36.8914 106.771 36.99C106.79 37.1873 106.816 37.5234 106.833 37.9817C106.867 38.9 106.86 40.2977 106.674 42.0463C106.303 45.5443 105.223 50.4003 102.359 55.653L113.135 61.5306C116.913 54.6045 118.373 48.1297 118.881 43.3414C119.135 40.947 119.152 38.9627 119.1 37.5348C119.074 36.8201 119.031 36.242 118.99 35.8185C118.97 35.6066 118.95 35.4331 118.934 35.3002C118.926 35.2338 118.918 35.1774 118.912 35.1315C118.909 35.1085 118.906 35.0881 118.904 35.0703C118.902 35.0614 118.901 35.0532 118.9 35.0457C118.899 35.0419 118.899 35.0383 118.898 35.0348C118.898 35.0331 118.898 35.0306 118.898 35.0298C118.897 35.0273 118.897 35.025 112.826 35.93ZM111.452 40.5091C112.587 39.2936 112.875 39.3321 112.396 39.5168C112.08 39.6389 111.407 39.8278 110.501 39.7207C109.549 39.6084 108.714 39.2129 108.081 38.6998C107.499 38.2282 107.183 37.7397 107.034 37.4668C106.88 37.188 106.813 36.9761 106.787 36.8865C106.757 36.7862 106.743 36.7099 106.734 36.6542C106.729 36.6221 106.724 36.5854 106.72 36.5418C106.717 36.5197 106.715 36.4952 106.712 36.4679C106.711 36.4542 106.71 36.4397 106.709 36.4244C106.708 36.4167 106.707 36.4088 106.707 36.4008C106.706 36.3967 106.706 36.3926 106.706 36.3884C106.706 36.3864 106.705 36.3832 106.705 36.3822C106.705 36.379 106.705 36.3758 112.826 35.93C118.948 35.4842 118.948 35.481 118.947 35.4777C118.947 35.4766 118.947 35.4733 118.947 35.4711C118.947 35.4666 118.946 35.462 118.946 35.4573C118.945 35.4479 118.944 35.438 118.943 35.4278C118.942 35.4072 118.94 35.385 118.938 35.3612C118.933 35.3135 118.928 35.259 118.921 35.1984C118.908 35.0777 118.889 34.9294 118.863 34.7593C118.811 34.4279 118.723 33.9706 118.571 33.4498C118.328 32.6159 117.656 30.6586 115.808 29.1619C113.435 27.239 110.478 27.0988 107.976 28.0649C105.886 28.8715 104.076 30.4218 102.479 32.1324L111.452 40.5091ZM90.1717 52.5271C97.1855 50.4341 105.158 46.8917 111.335 40.6316L102.597 32.0099C98.4414 36.2211 92.658 38.9749 86.6616 40.7643L90.1717 52.5271ZM86.8361 40.715C86.1341 40.9021 85.5951 41.011 85.204 41.0664C84.7894 41.1252 84.6799 41.1037 84.7904 41.1133C84.8531 41.1187 85.5684 41.1759 86.4374 41.7489C86.9047 42.057 87.3878 42.4979 87.7879 43.0916C88.189 43.6868 88.4207 44.308 88.5312 44.8744L76.4832 47.226C76.8729 49.2227 78.0285 50.9081 79.6802 51.9971C81.1401 52.9597 82.6637 53.2507 83.7345 53.3432C85.8272 53.5239 88.0697 53.0901 89.9973 52.5764L86.8361 40.715ZM88.5312 44.8744C88.7966 46.2341 88.4473 47.2498 88.3382 47.5382C88.3041 47.6283 88.2746 47.6958 88.2562 47.7362C88.2377 47.7766 88.2259 47.7997 88.2257 47.8001C88.2256 47.8003 88.2321 47.7876 88.2502 47.7542C88.2695 47.7187 88.2913 47.6791 88.3276 47.6136L77.5851 41.6734C77.5009 41.8258 77.1311 42.4696 76.8563 43.1962C76.5695 43.9548 76.132 45.427 76.4832 47.226L88.5312 44.8744ZM88.3276 47.6136C88.4286 47.431 88.8861 46.6411 89.1956 45.7199C89.5408 44.6926 89.8803 43.0219 89.3033 41.0987L77.5456 44.6261C77.1504 43.3087 77.4145 42.2416 77.5596 41.8098C77.6303 41.5994 77.6942 41.4734 77.6946 41.4727C77.697 41.4679 77.6917 41.4787 77.6723 41.5146C77.6514 41.5534 77.6274 41.5969 77.5851 41.6734L88.3276 47.6136ZM89.3034 41.099C88.9774 40.0122 88.2769 38.544 86.7772 37.4031C85.3116 36.2881 83.7512 35.9967 82.6784 35.9409C80.8892 35.848 79.0263 36.3717 77.8373 36.7149L81.2421 48.5087C81.8354 48.3375 82.1957 48.2496 82.4069 48.208C82.659 48.1583 82.4685 48.222 82.0415 48.1998C81.5712 48.1754 80.467 48.0264 79.345 47.1728C78.1888 46.2933 77.7194 45.2054 77.5455 44.6258L89.3034 41.099ZM77.8373 36.7149C76.8476 37.0007 74.922 37.6947 73.9415 38.1079L78.7085 49.4199C79.3119 49.1656 80.7806 48.642 81.2422 48.5087L77.8373 36.7149ZM73.9415 38.1079C73.557 38.2699 73.2905 38.3769 73.035 38.4794L77.6059 49.8721C77.876 49.7637 78.2227 49.6246 78.7085 49.4199L73.9415 38.1079ZM73.035 38.4794C71.9393 38.919 71.3612 39.1703 68.5149 40.614L74.0679 51.5617C75.4588 50.8562 76.1784 50.5018 76.6354 50.2879C77.0312 50.1027 77.2157 50.0286 77.6059 49.8721L73.035 38.4794ZM68.5149 40.614C61.7333 44.0539 58.0254 46.3965 55.0566 48.4978L62.1484 58.5174C64.5579 56.812 67.7392 54.7718 74.0679 51.5617L68.5149 40.614ZM55.0566 48.4978C43.1169 56.9486 36.315 67.1223 34.8035 80.2143L46.9979 81.6222C48.0342 72.6465 52.4731 65.3655 62.1484 58.5174L55.0566 48.4978ZM46.6807 84.7701C46.6807 83.8692 46.7689 82.9514 46.9389 82.019L34.8625 79.8175C34.5722 81.4101 34.4053 83.0666 34.4053 84.7701H46.6807ZM56.7109 114.766C51.9927 107.096 46.6807 96.3157 46.6807 84.7701H34.4053C34.4053 99.8014 41.2056 112.988 46.2554 121.197L56.7109 114.766Z" fill="#2D2520" mask="url(#path-2-inside-1_1353_2726)"/>
<path d="M136.315 104.874V56.0333H164.864V63.6603H145.062V76.3954H162.205V83.8126H145.062V104.874H136.315Z" fill="#2D2520"/>
<path d="M173.292 104.874V97.9471H179.099V62.9606H173.292V56.0333H193.654V62.9606H187.846V97.9471H193.654V104.874H173.292Z" fill="#2D2520"/>
<path d="M212.947 104.874H204.2V56.0333H224.422C228.714 56.0333 231.956 57.3394 234.149 59.9518C236.388 62.5641 237.507 66.2027 237.507 70.8676C237.507 74.5528 236.807 77.6083 235.408 80.034C234.009 82.4131 231.956 84.0458 229.25 84.9321L238.137 104.874H228.691L220.644 85.6319H212.947V104.874ZM223.513 78.3547C225.005 78.3547 226.172 77.9582 227.011 77.1651C227.898 76.3721 228.341 75.0426 228.341 73.1767V68.8383C228.341 66.9724 227.898 65.6429 227.011 64.8499C226.172 64.0568 225.005 63.6603 223.513 63.6603H212.947V78.3547H223.513Z" fill="#2D2520"/>
<path d="M248.324 104.874V56.0333H277.643V63.6603H257.071V76.3954H275.054V83.8126H257.071V97.2474H277.643V104.874H248.324Z" fill="#2D2520"/>
<path d="M297.231 104.874H288.485V56.0333H308.707C312.999 56.0333 316.241 57.3394 318.433 59.9518C320.672 62.5641 321.792 66.2027 321.792 70.8676C321.792 74.5528 321.092 77.6083 319.693 80.034C318.293 82.4131 316.241 84.0458 313.535 84.9321L322.422 104.874H312.975L304.928 85.6319H297.231V104.874ZM307.797 78.3547C309.29 78.3547 310.456 77.9582 311.296 77.1651C312.182 76.3721 312.625 75.0426 312.625 73.1767V68.8383C312.625 66.9724 312.182 65.6429 311.296 64.8499C310.456 64.0568 309.29 63.6603 307.797 63.6603H297.231V78.3547H307.797Z" fill="#2D2520"/>
<path d="M349.62 105.714C346.681 105.714 344.023 105.248 341.643 104.315C339.311 103.335 337.305 101.842 335.626 99.8364C333.993 97.7838 332.71 95.1715 331.777 91.9994C330.891 88.7806 330.448 84.9321 330.448 80.4539C330.448 75.9756 330.891 72.1504 331.777 68.9783C332.71 65.7595 333.993 63.1472 335.626 61.1413C337.305 59.0888 339.311 57.596 341.643 56.663C344.023 55.6834 346.681 55.1936 349.62 55.1936C352.559 55.1936 355.195 55.6834 357.527 56.663C359.906 57.596 361.912 59.0888 363.545 61.1413C365.224 63.1472 366.507 65.7595 367.394 68.9783C368.326 72.1504 368.793 75.9756 368.793 80.4539C368.793 84.9321 368.326 88.7806 367.394 91.9994C366.507 95.1715 365.224 97.7838 363.545 99.8364C361.912 101.842 359.906 103.335 357.527 104.315C355.195 105.248 352.559 105.714 349.62 105.714ZM349.62 98.0171C352.792 98.0171 355.242 97.0375 356.968 95.0782C358.694 93.0723 359.557 90.2268 359.557 86.5415V74.3662C359.557 70.681 358.694 67.8587 356.968 65.8995C355.242 63.8936 352.792 62.8906 349.62 62.8906C346.448 62.8906 343.999 63.8936 342.273 65.8995C340.547 67.8587 339.684 70.681 339.684 74.3662V86.5415C339.684 90.2268 340.547 93.0723 342.273 95.0782C343.999 97.0375 346.448 98.0171 349.62 98.0171Z" fill="#2D2520"/>
<path d="M405.184 104.874L401.755 92.1394H386.011L382.583 104.874H374.186L388.46 56.0333H399.516L413.791 104.874H405.184ZM395.877 71.7072L394.338 63.9402H393.358L391.819 71.7072L388.11 85.0721H399.656L395.877 71.7072Z" fill="#2D2520"/>
<path d="M422.428 56.0333H439.082C442.021 56.0333 444.633 56.4998 446.919 57.4327C449.251 58.3191 451.211 59.7652 452.797 61.7711C454.429 63.7303 455.666 66.2493 456.505 69.3282C457.345 72.407 457.765 76.1155 457.765 80.4539C457.765 84.7922 457.345 88.5008 456.505 91.5796C455.666 94.6584 454.429 97.2007 452.797 99.2066C451.211 101.166 449.251 102.612 446.919 103.545C444.633 104.431 442.021 104.874 439.082 104.874H422.428V56.0333ZM439.082 97.2474C442.067 97.2474 444.377 96.3377 446.009 94.5184C447.642 92.6525 448.458 89.8769 448.458 86.1916V74.7161C448.458 71.0308 447.642 68.2786 446.009 66.4593C444.377 64.5933 442.067 63.6603 439.082 63.6603H431.175V97.2474H439.082Z" fill="#2D2520"/>
</svg>
